<?xml version="1.0" standalone="no"?>
<!DOCTYPE svg PUBLIC "-//W3C//DTD SVG 1.1//EN" "http://www.w3.org/Graphics/SVG/1.1/DTD/svg11.dtd" >
<!--
2013-9-30: Created.
-->
<svg>
<metadata>
Created by iconfont
</metadata>
<defs>

<font id="iconfont" horiz-adv-x="1024" >
  <font-face
    font-family="iconfont"
    font-weight="500"
    font-stretch="normal"
    units-per-em="1024"
    ascent="896"
    descent="-128"
  />
    <missing-glyph />
    
    <glyph glyph-name="x" unicode="x" horiz-adv-x="1001"
d="M281 543q-27 -1 -53 -1h-83q-18 0 -36.5 -6t-32.5 -18.5t-23 -32t-9 -45.5v-76h912v41q0 16 -0.5 30t-0.5 18q0 13 -5 29t-17 29.5t-31.5 22.5t-49.5 9h-133v-97h-438v97zM955 310v-52q0 -23 0.5 -52t0.5 -58t-10.5 -47.5t-26 -30t-33 -16t-31.5 -4.5q-14 -1 -29.5 -0.5
t-29.5 0.5h-32l-45 128h-439l-44 -128h-29h-34q-20 0 -45 1q-25 0 -41 9.5t-25.5 23t-13.5 29.5t-4 30v167h911zM163 247q-12 0 -21 -8.5t-9 -21.5t9 -21.5t21 -8.5q13 0 22 8.5t9 21.5t-9 21.5t-22 8.5zM316 123q-8 -26 -14 -48q-5 -19 -10.5 -37t-7.5 -25t-3 -15t1 -14.5
t9.5 -10.5t21.5 -4h37h67h81h80h64h36q23 0 34 12t2 38q-5 13 -9.5 30.5t-9.5 34.5q-5 19 -11 39h-368zM336 498v228q0 11 2.5 23t10 21.5t20.5 15.5t34 6h188q31 0 51.5 -14.5t20.5 -52.5v-227h-327z" />
    

    
    <glyph glyph-name="gou" unicode="&#58929;" d="M409.344-130.848c68.416 124.992 307.456 348.544 478.144 462.656l67.072 40.96c26.432 14.272 49.536 24.064 67.968 28.16-52.608 119.936-6.464 217.408 1.024 329.856l0 0c-63.424-32.448-127.424-78.272-189.12-130.496l-71.424-64.192c-205.696-194.88-369.6-435.072-369.6-435.072L273.28 333.472 0.384 200.8c115.456-41.152 292.096-187.904 408.64-331.584"  horiz-adv-x="1024" />

    
    <glyph glyph-name="wechat" unicode="&#58913;" d="M290.016 603.008q-18.016 0-31.488-10.496t-13.504-27.008 13.504-27.008 31.488-10.496q16.992 0 27.488 10.496t10.496 27.488-10.496 27.008-27.488 10.016zM600.992 384q-12 0-20.992-9.504t-8.992-20.992 8.992-20.992 20.992-9.504q16 0 27.008 8.992t11.008 20.992-11.008 21.504-27.008 9.504zM1020.992 737.984q0 64-45.504 109.504t-109.504 45.504h-708.992q-64 0-109.504-45.504t-45.504-109.504v-708.992q0-64 45.504-109.504t109.504-45.504h708.992q64 0 109.504 45.504t45.504 109.504v708.992zM388.992 216.992q-28.992 0-106.016 15.008l-106.016-52.992 30.016 91.008q-120.992 84.992-120.992 204.992 0 107.008 88.512 182.016t214.496 75.008q111.008 0 198.496-60.512t106.496-151.488q-16 0.992-28.992 0.992-107.008 0-182.016-70.016t-75.008-168.992q0-32 8.992-64-16-0.992-28-0.992zM836 111.008l22.016-76-83.008 46.016q-60-16-91.008-16-107.008 0-182.016 64.512t-75.008 155.488 75.008 155.488 182.016 64.512q103.008 0 180.512-64.992t77.504-155.008q0-95.008-106.016-174.016v0zM767.008 384q-11.008 0-20.512-9.504t-9.504-20.992 9.504-20.992 20.512-9.504q16.992 0 27.488 8.992t10.496 20.992-10.496 21.504-27.488 9.504zM502.016 528q16.992 0 27.488 10.496t10.496 27.488-10.496 27.008-27.488 10.016q-18.016 0-31.488-10.496t-13.504-27.008 13.504-27.008 31.488-10.496z"  horiz-adv-x="1024" />

    
    <glyph glyph-name="wenjuan" unicode="&#59186;" d="M820.434721 802.782945h-55.839772c-15.445784 0-33.265638-9.503445-33.265638-24.949228 0-15.44476 17.819854-30.890544 33.265638-30.890544h55.839772c33.264615 0 55.838749-22.574135 55.83875-55.839773v-642.739647c0-33.265638-22.574135-55.839773-55.83875-55.839772H219.275075c-33.265638 0-70.093405 22.574135-70.093404 55.839772V691.1034c0 33.265638 22.574135 55.839773 55.839772 55.839773h70.093405c15.44476 0 21.386076 15.445784 21.386076 30.890544 0 15.445784-5.941316 24.949228-21.386076 24.949228h-70.093405c-78.413907 0-111.679545-48.710398-111.679545-112.86658v-635.611296c0-68.906369 41.582047-117.616768 117.616768-117.616768h603.532693c76.038814 0 117.620861 40.395012 117.620861 117.616768V689.916365c0.001023 64.156182-39.20593 112.86658-111.677499 112.86658zM275.115871 550.912497c0-15.44476 13.07069-28.511357 28.511358-28.511357h419.385672c15.44476 0 28.515451 13.066597 28.515451 28.511357 0 15.445784-13.07069 28.515451-28.515451 28.515451H303.626205c-15.439644 0-28.510334-13.069667-28.510334-28.515451zM721.823819 424.97932H303.626205c-15.439644 0-28.511357-13.069667-28.511357-28.515451 0-15.440667 13.07069-28.511357 28.511357-28.511357h419.385673c15.44476 0 28.515451 13.07069 28.51545 28.511357-1.187035 16.632819-14.256702 28.515451-29.703509 28.515451z m0-167.514201H303.626205c-15.439644 0-28.511357-13.07069-28.511357-28.516474 0-15.44476 13.07069-28.511357 28.511357-28.511357h419.385673c15.44476 0 28.515451 13.066597 28.51545 28.511357-1.187035 16.632819-14.256702 28.516474-29.703509 28.516474zM416.492786 732.685447H611.337449c22.574135 0 41.582047 22.574135 41.582048 48.711422 0 26.136264-19.007913 48.710398-42.770106 48.710398H416.492786c-23.76117 0-42.769083-22.574135-42.769083-48.710398 0.001023-26.137287 19.007913-48.711422 42.769083-48.711422z m0 0"  horiz-adv-x="1024" />

    
    <glyph glyph-name="sousuo" unicode="&#58880;" d="M1010.255-39.961l-0.028 0.028v-0.028h0.028c9.13-10.666 13.71-22.47 13.71-35.412 0-14.478-5.148-26.851-15.445-37.147-9.228-9.533-22.14-15.45-36.435-15.45-0.26 0-0.52 0.002-0.78 0.006-6.076-0-11.964 0.967-17.681 2.872-8.58 2.867-15.811 7.852-21.317 14.345l0.155-1.232-282.529 284.548c-67.838-48.013-143.725-71.99-227.605-71.99-8.391 0-16.952 0.37-25.713 1.109-17.265 1.519-33.068 4.354-48.35 8.461-47.548 3.196-110.233 30.015-161.885 70.317-31.307 18.385-74 63.696-106.028 120.099-26.064 43.675-43.659 95.307-49.153 150.501 2.898-33.855-3.208 4.378-3.68 43.965 0.304-13.558 0.032-5.146 0.032 3.33 0 23.792 2.146 47.083 6.255 69.69 9.975 62.257 35.352 119.592 72.077 167.817 18.25 34.173 76.524 86.383 146.065 118.245-36.233-14.885 1.312 5.68 42.868 20.157 37.978 13.769 81.811 21.731 127.504 21.731 0.003 0 0.006-0 0.009-0 18.317 0 35.838-1.138 52.648-3.442 44.969-6.087 88.033-19.797 129.219-41.129 66.61-34.718 120.274-86.343 156.498-149.278-13.143 29.645 14.106-14.527 32.793-65.583 18.687-51.056 26.908-102.852 24.604-155.415-3.043-87.634-33.165-166.48-90.365-236.564l283.638-284.548h-1.109zM758.616 482.29c0.29 5.104 0.456 11.076 0.456 17.086 0 43.26-8.569 84.518-24.103 122.17-18.271 48.271-47.754 90.943-85.247 124.943 29.196-28.033 9.57-6.899-12.901 11.788-41.8 35.060-92.937 60.385-149.128 71.79 35.535-6.029-12.523 5.332-63.235 5.332-13.63 0-27.069-0.821-40.269-2.415-2.263 0.111-5.987-0.342-9.571-1.16l-6.019-0.959c-61.706-9.814-116.098-35.749-160.295-73.316-33.116-20.653-76.821-77.304-99.524-143.694-2.827 9.43-18.272-42.394-20.974-99.537-2.674-57.143 7.794-110.105 31.458-158.857 28.846-63.344 75.687-114.29 133.963-147.46-0.209-7.663 59.584-35.389 125.419-43.75 2.127-4.225 51.305-6.899 100.854 1.492 42.774 7.714 80.93 22.543 115.046 43.343 11.906 2.277 55.076 35.346 88.965 76.365-13.125-21.898 24.257 24.414 48.417 77.972-34.523-61.493-20.216-39.591-8.781-15.983v-0.028c21.907 42.093 35.041 91.811 35.743 144.53z"  horiz-adv-x="1024" />

    
    <glyph glyph-name="home-" unicode="&#58901;" d="M521.71343 844.796887a81.919738 81.919738 0 0 0 59.801408-25.804717l368.638821-387.889959a81.919738 81.919738 0 0 0 22.323128-61.439804h-136.191564v-363.928435a81.919738 81.919738 0 0 0-81.919738-81.919738h-81.919738V150.527109a151.551515 151.551515 0 0 1-151.551515 151.551515h-23.347125a151.551515 151.551515 0 0 1-151.551515-151.551515v-227.327273h-81.919738a81.919738 81.919738 0 0 0-81.919738 81.919738V368.84321H55.99972a81.919738 81.919738 0 0 0 20.479934 85.401327l387.889959 368.63882a81.919738 81.919738 0 0 0 57.343817 21.91353m0 51.199836A133.324373 133.324373 0 0 1 430.577721 859.337641L41.458967 491.313218a133.324373 133.324373 0 0 1-16.793547-173.874643h105.266863v-311.704603A133.733972 133.733972 0 0 1 263.666255-128h133.733973V150.527109a100.351679 100.351679 0 0 0 100.351678 100.351679h22.323129a100.351679 100.351679 0 0 0 100.351679-100.351679V-128h133.733972a133.733972 133.733972 0 0 1 133.733972 133.733972V317.643374h122.879607A133.529173 133.529173 0 0 1 986.812741 465.918099L618.788319 855.036854a133.324373 133.324373 0 0 1-97.074889 40.959869z"  horiz-adv-x="1024" />

    
    <glyph glyph-name="home-1" unicode="&#58902;" d="M1010.357614 317.532526h-122.849042v-311.831819A133.700707 133.700707 0 0 0 753.807864-128h-133.700707V150.457829a100.326718 100.326718 0 0 1-100.326718 100.326717H497.667612a100.326718 100.326718 0 0 1-100.326718-100.326717V-128h-133.495959a133.700707 133.700707 0 0 0-133.700707 133.700707V317.532526H25.313045a133.291211 133.291211 0 0 0 16.789369 173.831394L430.100639 859.092053a133.700707 133.700707 0 0 0 188.778028-4.299717l367.93288-389.021966a133.495959 133.495959 0 0 0 23.546067-148.237844z"  horiz-adv-x="1024" />

    
    <glyph glyph-name="daxue-" unicode="&#58903;" d="M1024 312.1152L890.4704-128h-757.76A133.5296 133.5296 0 0 0 0 5.5296V317.2352c1.4336 91.3408 90.5216 136.6016 133.5296 136.6016h89.088v153.1904L489.6768 896h44.4416l266.24-291.0208v-151.1424h89.088A141.312 141.312 0 0 0 1024 317.2352v-311.7056A133.5296 133.5296 0 0 0 890.4704-128z m-801.3824 94.208H178.176c-72.704 0-133.5296-19.2512-133.5296-133.5296V50.176c0-84.3776 20.48-133.5296 133.5296-133.5296h44.4416zM757.76 582.8608l-222.6176 245.76h-45.4656L266.24 584.704v-668.2624h491.52zM979.5584 265.216v7.5776c0 107.1104-42.5984 133.5296-133.5296 133.5296h-44.6464v-489.8816h44.4416c106.9056 0 133.5296 44.6464 133.5296 133.5296z m-478.6176 96.4608h22.3232A100.1472 100.1472 0 0 0 623.2064 261.12v-300.032H400.7936V261.12a100.1472 100.1472 0 0 0 100.1472 100.5568z m-55.7056-356.1472h133.5296V261.12a55.7056 55.7056 0 0 1-55.7056 55.7056h-22.1184A55.7056 55.7056 0 0 1 445.2352 261.12zM1024 312.1152z"  horiz-adv-x="1024" />

    
    <glyph glyph-name="daxue-1" unicode="&#58904;" d="M1024 312.1152L890.4704-128h-757.76A133.5296 133.5296 0 0 0 0 5.5296V317.2352c1.6384 91.3408 63.8976 136.6016 133.5296 136.6016H178.176v-481.6896a11.0592 11.0592 0 0 1 11.0592-11.0592h22.3232a11.0592 11.0592 0 0 1 11.0592 11.0592v634.88L489.6768 896h44.4416l266.24-291.0208v-632.832a11.0592 11.0592 0 0 1 11.0592-11.0592h22.3232a11.0592 11.0592 0 0 1 11.0592 11.0592V453.8368h44.4416A138.6496 138.6496 0 0 0 1024 317.2352v-311.7056A133.5296 133.5296 0 0 0 890.4704-128zM400.7936-38.912h222.4128V261.12a100.1472 100.1472 0 0 1-100.1472 100.1472h-22.1184A100.1472 100.1472 0 0 1 400.7936 261.12zM1024 312.1152z"  horiz-adv-x="1024" />

    
    <glyph glyph-name="zhuanye-" unicode="&#58905;" d="M795.239675-128h-21.708796A228.966354 228.966354 0 0 0 544.769325 101.785554v21.708796a228.966354 228.966354 0 0 0 228.761554 229.171154h21.708796A228.966354 228.966354 0 0 0 1024.001229 123.49435v-21.913596A228.966354 228.966354 0 0 0 795.239675-128z m184.319963 250.87995a184.319963 184.319963 0 0 1-184.319963 185.343963h-21.708796a184.319963 184.319963 0 0 1-184.319963-185.343963v-21.913596a184.319963 184.319963 0 0 1 184.319963-185.343963h21.708796a184.319963 184.319963 0 0 1 184.319963 185.343963zM893.338855 416.767891H675.841298a130.867174 130.867174 0 0 0-131.071973 131.071974V765.747021A130.867174 130.867174 0 0 0 675.841298 895.999795h217.497557A130.867174 130.867174 0 0 0 1024.001229 765.747021V547.839865a130.867174 130.867174 0 0 0-130.662374-131.071974z m87.244782 348.15993a87.244783 87.244783 0 0 1-87.244782 88.063983H675.841298a87.244783 87.244783 0 0 1-87.244782-87.244783V547.839865A87.244783 87.244783 0 0 1 675.841298 460.390282h217.497557A87.244783 87.244783 0 0 1 980.378838 547.839865zM348.161364-128H130.663807A130.867174 130.867174 0 0 0 0.001434 3.481574V221.59353a130.867174 130.867174 0 0 0 130.662373 130.867174H348.161364a130.867174 130.867174 0 0 0 130.662374-130.867174v-218.111956A130.867174 130.867174 0 0 0 348.161364-128z m87.244783 348.15993A87.244783 87.244783 0 0 1 348.161364 309.043113H130.663807a87.244783 87.244783 0 0 1-87.244782-87.244783v-218.316756a87.244783 87.244783 0 0 1 87.244782-87.244783H348.161364a87.244783 87.244783 0 0 1 87.244783 87.244783zM348.161364 416.767891H130.663807A130.867174 130.867174 0 0 0 0.001434 547.839865V765.747021A130.867174 130.867174 0 0 0 130.663807 895.999795H348.161364a130.867174 130.867174 0 0 0 131.071974-130.252774V547.839865a130.867174 130.867174 0 0 0-131.071974-131.071974z m87.244783 348.15993A87.244783 87.244783 0 0 1 348.161364 852.991804H130.663807a87.244783 87.244783 0 0 1-87.039982-87.244783V547.839865a87.244783 87.244783 0 0 1 87.244782-87.244783H348.161364A87.244783 87.244783 0 0 1 435.815746 547.839865z"  horiz-adv-x="1024" />

    
    <glyph glyph-name="zhuanye-1" unicode="&#58906;" d="M795.239675-128h-21.708796A228.966354 228.966354 0 0 0 544.769325 101.785554v21.708796a228.966354 228.966354 0 0 0 228.761554 229.171154h21.708796A228.966354 228.966354 0 0 0 1024.001229 123.49435v-21.913596A228.966354 228.966354 0 0 0 795.239675-128z m98.09918 544.767891H675.841298a130.867174 130.867174 0 0 0-131.071973 131.071974V765.747021A130.867174 130.867174 0 0 0 675.841298 895.999795h217.497557A130.867174 130.867174 0 0 0 1024.001229 765.747021V547.839865a130.867174 130.867174 0 0 0-130.662374-131.071974zM348.161364-128H130.663807A130.867174 130.867174 0 0 0 0.001434 3.481574V221.59353a130.867174 130.867174 0 0 0 130.662373 130.867174H348.161364a130.867174 130.867174 0 0 0 130.662374-130.867174v-218.111956A130.867174 130.867174 0 0 0 348.161364-128z m0 544.767891H130.663807A130.867174 130.867174 0 0 0 0.001434 547.839865V765.747021A130.867174 130.867174 0 0 0 130.663807 895.999795H348.161364a130.867174 130.867174 0 0 0 131.071974-130.252774V547.839865a130.867174 130.867174 0 0 0-131.071974-131.071974z"  horiz-adv-x="1024" />

    
    <glyph glyph-name="wode-" unicode="&#58907;" d="M999.2192-126.5664L24.7808-128S-1.4336 192.3072 269.5168 273.6128c0 0 74.752 18.2272 222.4128-66.7648h22.1184c137.8304 81.92 242.8928 69.2224 242.8928 69.2224 268.288-81.7152 242.2784-402.6368 242.2784-402.6368zM757.76 231.6288s-105.0624 13.1072-242.8928-69.2224H491.52c-147.456 84.992-222.4128 66.7648-222.4128 66.7648C49.9712 143.5648 69.4272-82.944 69.4272-82.944h885.3504s13.5168 227.328-197.0176 314.5728z m-245.76 64.1024a300.032 300.032 0 1 0 300.032 300.2368A300.032 300.032 0 0 0 512 295.7312z m0 555.8272a255.5904 255.5904 0 1 1 255.5904-255.5904A255.5904 255.5904 0 0 1 512 851.5584z"  horiz-adv-x="1024" />

    
    <glyph glyph-name="wode-1" unicode="&#58908;" d="M999.424-128H24.576S-1.8432 191.6928 269.312 273.2032c0 0 74.9568 18.2272 222.4128-66.7648h22.3232c138.0352 81.92 243.0976 69.2224 243.0976 69.2224C1025.6384 193.9456 999.424-128 999.424-128zM512 295.3216a300.2368 300.2368 0 1 0 300.2368 300.4416A300.2368 300.2368 0 0 0 512 295.3216z"  horiz-adv-x="1024" />

    
    <glyph glyph-name="guanbi-" unicode="&#58909;" d="M512 844.8A460.8 460.8 0 1 0 51.2 384 461.4144 461.4144 0 0 0 512 844.8M512 896a512 512 0 1 1 512-512A512 512 0 0 1 512 896zM658.432 575.6928a52.6336 52.6336 0 0 1-36.6592-14.5408L512 451.584l-109.7728 109.568a52.6336 52.6336 0 0 1-36.6592 14.5408 50.3808 50.3808 0 0 1-31.9488-14.5408 40.96 40.96 0 0 1-13.1072-31.3344 43.8272 43.8272 0 0 1 13.5168-36.2496L443.8016 384l-108.544-108.3392a52.6336 52.6336 0 0 1-15.1552-36.6592 55.7056 55.7056 0 0 1 14.7456-34.2016 44.6464 44.6464 0 0 1 30.72-12.0832h1.2288a47.104 47.104 0 0 1 35.4304 13.312L512 315.392l109.568-109.568a47.104 47.104 0 0 1 35.4304-13.312h1.2288a44.6464 44.6464 0 0 1 30.72 12.0832 55.7056 55.7056 0 0 1 14.7456 34.2016 52.6336 52.6336 0 0 1-15.1552 36.6592L580.1984 384l109.7728 109.7728a43.8272 43.8272 0 0 1 13.5168 36.2496 40.96 40.96 0 0 1-13.1072 31.3344 50.3808 50.3808 0 0 1-31.9488 14.5408z"  horiz-adv-x="1024" />

    
    <glyph glyph-name="xiangxia-" unicode="&#58910;" d="M1024.000205 625.664a49.9712 49.9712 0 0 0-13.7216-34.6112L552.960205 106.9056a49.7664 49.7664 0 0 0-57.9584-9.8304l-3.2768 2.048-3.6864 2.048a32.1536 32.1536 0 0 0-5.5296 3.2768l-2.048 2.2528a20.48 20.48 0 0 1-4.5056 3.6864L14.131405 588.8A49.5616 49.5616 0 0 0 0.000205 623.616a50.3808 50.3808 0 0 0 86.6304 34.816l428.2368-444.416 422.2976 446.2592A50.3808 50.3808 0 0 0 1024.000205 625.664z"  horiz-adv-x="1024" />

    
    <glyph glyph-name="xiangshang-" unicode="&#58911;" d="M0.00041 142.336a49.9712 49.9712 0 0 0 13.7216 34.6112L471.04041 661.0944a49.7664 49.7664 0 0 0 58.5728 9.6256l3.2768-2.048 3.6864-2.048a32.1536 32.1536 0 0 0 5.5296-3.2768l2.048-2.2528a20.48 20.48 0 0 1 4.5056-3.6864L1009.86921 179.2a49.5616 49.5616 0 0 0 14.1312-34.816 50.3808 50.3808 0 0 0-86.6304-34.816L509.13321 553.984 86.83561 107.7248A50.3808 50.3808 0 0 0 0.00041 142.336z"  horiz-adv-x="1024" />

    
    <glyph glyph-name="caidan-" unicode="&#58912;" d="M993.8944 739.328H367.4112a30.1056 30.1056 0 0 0 0 60.2112h626.4832a30.1056 30.1056 0 0 0 0-60.2112z m-4.096-385.4336H367.4112a30.1056 30.1056 0 0 0 0 60.2112h622.3872a30.1056 30.1056 0 0 0 0-60.2112z m4.096-385.4336H367.4112a30.1056 30.1056 0 1 0 0 60.2112h626.4832a30.1056 30.1056 0 1 0 0-60.2112zM174.8992 739.328H30.1056a30.1056 30.1056 0 1 0 0 60.2112h144.7936a30.1056 30.1056 0 0 0 0-60.2112z m0-385.4336H30.1056a30.1056 30.1056 0 1 0 0 60.2112h144.5888a30.1056 30.1056 0 1 0 0-60.2112z m0-385.4336H30.1056a30.1056 30.1056 0 1 0 0 60.2112h144.7936a30.1056 30.1056 0 1 0 0-60.2112z"  horiz-adv-x="1024" />

    
    <glyph glyph-name="shoucang-1" unicode="&#58916;" d="M512.006144 45.4656l-292.0448-94.4128-2.6624 307.2-172.8512 194.56-4.9152 4.9152a56.32 56.32 0 0 0-9.0112 10.0352c0 1.4336 2.6624 2.4576 3.072 2.6624L321.951744 568.32l167.3216 236.7488 2.2528 3.2768a106.9056 106.9056 0 0 0 7.9872 7.9872 110.3872 110.3872 0 0 0 7.9872-7.9872l3.4816-3.6864 191.2832-260.096 287.744-74.3424a3.8912 3.8912 0 0 0 2.2528-3.2768 26.8288 26.8288 0 0 0-8.3968-16.7936l-1.024-1.024-175.7184-215.6544v-278.528a4.096 4.096 0 0 0-3.2768-4.096zM500.742144 768l171.4176-232.8576 12.9024-17.6128 20.48-5.5296 239.0016-61.44L790.329344 261.12l-13.9264-16.9984v-252.1088l-245.76 79.6672L512.006144 76.8l-18.8416-6.144-243.3024-77.824-2.2528 253.3376V269.312l-15.1552 17.2032-148.8896 168.5504 239.0016 81.92 18.8416 6.3488 11.4688 16.1792 147.8656 208.4864m0 79.872c-15.1552 0-25.1904-13.5168-34.816-23.3472l-163.84-229.7856-278.7328-95.4368A34.6112 34.6112 0 0 1 0.006144 465.92c0-15.1552 12.0832-24.9856 20.48-34.4064l163.84-186.5728 2.6624-303.7184a34.816 34.816 0 0 1 32.3584-21.9136 33.5872 33.5872 0 0 1 8.192 1.6384L512.006144 13.1072l281.1904-91.136a33.792 33.792 0 0 1 9.6256-2.048 34.816 34.816 0 0 1 34.816 34.816V222.6176l168.7552 205.824A56.7296 56.7296 0 0 1 1024.006144 465.92a34.6112 34.6112 0 0 1-23.3472 32.5632l-279.1424 73.1136-186.1632 253.1328c-9.6256 9.6256-20.48 23.3472-34.816 23.3472z"  horiz-adv-x="1024" />

    
    <glyph glyph-name="weizhi-" unicode="&#58922;" d="M512-97.280012c-191.283123 0-371.097452 369.663852-371.097452 592.486163a371.097452 371.097452 0 0 0 742.194904 0c0-222.822311-179.814328-592.486163-371.097452-592.486163z m0 757.759697a208.281517 208.281517 0 1 1 208.895916-208.281517A208.691117 208.691117 0 0 1 512 659.660485zM512 834.559615a340.172664 340.172664 0 0 0 340.377464-339.353464C852.377464 288.972633 684.236731-66.560025 512-66.560025S171.622536 288.972633 171.622536 495.206151A340.172664 340.172664 0 0 0 512 834.559615m0-622.182151a239.001504 239.001504 0 1 1-239.615904 239.001504A239.615904 239.615904 0 0 1 512 212.377464M512 895.99959A401.20304 401.20304 0 0 1 110.182561 495.206151C110.182561 274.022239 289.996889-128 512-128s401.817439 402.022239 401.817439 623.206151A401.20304 401.20304 0 0 1 512 895.99959z m0-622.182151a177.561529 177.561529 0 1 0 178.175929 177.561529 177.766329 177.766329 0 0 0-178.175929-177.561529z"  horiz-adv-x="1024" />

    
    <glyph glyph-name="xueli-" unicode="&#58923;" d="M348.16-72.4992a178.5856 178.5856 0 0 0-178.7904 178.176V259.072L512 46.08l341.6064 212.992v-153.6A178.5856 178.5856 0 0 0 675.84-72.4992z m-294.5024 573.44L512 833.3312l457.3184-331.5712L512 211.5584zM512 795.4432l402.6368-292.0448L512 248.0128 109.3632 503.3984 512 795.4432M822.8864 203.776v-98.304A147.8656 147.8656 0 0 0 675.84-41.984H348.16a147.8656 147.8656 0 0 0-148.0704 147.456v98.304l278.3232-173.4656 32.5632-20.48 32.5632 20.48 279.3472 173.4656M512 871.424L0 500.1216 512 175.104l465.5104 295.3216v-248.832H1024v278.528L512 871.424z m372.3264-557.056L512 82.3296 139.6736 314.368v-208.896A209.1008 209.1008 0 0 1 348.16-103.424h327.68a209.1008 209.1008 0 0 1 208.4864 208.896V314.368zM1024 175.104h-46.4896v-46.4896H1024V175.104z"  horiz-adv-x="1024" />

    
    <glyph glyph-name="-" unicode="&#58924;" d="M504.020779-97.310689a592.099101 592.099101 0 0 0-90.635764 7.365434c-160.198202 95.341459-249.606394 203.163237-265.974026 320.396404a329.807792 329.807792 0 0 0 43.988012 204.595404 201.731069 201.731069 0 0 1 106.798801-121.52967l54.422378-23.937662-11.866534 58.30969c-63.015385 306.893107 102.297702 442.130669 196.82078 492.256544-32.326074-171.450949 62.810789-406.531069 67.311888-417.988412L655.216783 297.149251l7.774626 135.032967c4.296503 77.132468 84.497902 122.757243 130.531868 144.23976a470.569431 470.569431 0 0 1 38.668531-87.771429C857.766234 442.002797 880.271728 397.81019 879.044156 342.569431c-8.183816-251.038561-270.270529-413.691908-303.414985-433.128472a327.352647 327.352647 0 0 0-71.608392-6.956244zM500.133467 779.380619c-5.524076-163.676324 65.675125-343.106494 76.314085-368.271728l102.297703-250.22018 15.344655 270.065934c2.65974 46.852348 45.215584 81.838162 81.838162 102.297703 8.593007-20.45954 18.618182-39.691508 28.643357-58.718881 22.71009-43.16963 43.988012-83.884116 42.555844-130.736464-6.137862-226.282517-239.581219-378.910689-282.955445-405.303497a307.916084 307.916084 0 0 0-60.151049-5.114885 566.115485 566.115485 0 0 0-79.996803 6.137863c-148.331668 89.408192-231.192807 188.432368-245.514485 294.617382a274.362438 274.362438 0 0 0 13.912487 128.895105 237.535265 237.535265 0 0 1 93.295505-78.36004l108.844755-48.07992-23.937663 116.619381C322.34006 588.083916 417.067732 715.546853 500.133467 779.380619M587.086513 894.977023s-368.271728-108.435564-276.612987-552.407592c0 0-119.279121 52.581019-92.272527 184.135864 0 0-330.012388-342.697303 184.135864-645.293906a613.786214 613.786214 0 0 1 102.297702-8.797603 350.062737 350.062737 0 0 1 83.065735 8.797603S900.731269 54.703696 909.733467 342.569431c3.682717 113.55045-84.702498 185.568032-92.272528 276.612987 0 0-176.975025-53.603996-184.135864-184.135865 0 0-124.394006 303.21039-46.033966 460.953447z"  horiz-adv-x="1024" />

    
    <glyph glyph-name="-1" unicode="&#58926;" d="M512-8.8064a56.7296 56.7296 0 0 0-40.96 16.7936L71.0656 409.1904A236.9536 236.9536 0 0 0 100.1472 708.8128a232.0384 232.0384 0 0 0 298.5984 24.576L430.08 707.584l102.4-102.4 18.6368 39.3216a228.352 228.352 0 0 0 44.6464 64.9216 232.448 232.448 0 1 0 329.5232-329.3184L552.96 7.7824a56.7296 56.7296 0 0 0-40.96-16.5888zM760.832 746.0864a201.728 201.728 0 0 0 143.36-344.4736l-45.056-44.2368-17.6128-17.6128-310.272-310.272a26.2144 26.2144 0 0 0-37.0688 0L122.88 401.8176l-18.0224 18.0224-9.216 9.216A206.0288 206.0288 0 0 0 122.88 687.104a199.0656 199.0656 0 0 0 141.7216 58.7776 201.3184 201.3184 0 0 0 115.712-36.2496L409.6 684.8512l71.2704-71.2704 61.44-61.44L579.584 629.76a196.8128 196.8128 0 0 0 181.248 115.5072m0 61.44a258.2528 258.2528 0 0 1-236.7488-150.528L450.56 730.5216l-33.9968 27.8528a263.5776 263.5776 0 0 1-152.9856 48.7424 260.7104 260.7104 0 0 1-184.32-76.5952 267.264 267.264 0 0 1-31.744-341.1968l30.9248-30.9248L450.56-13.9264a87.6544 87.6544 0 0 1 124.1088 0l310.272 310.272 61.44 61.44a263.168 263.168 0 0 1-185.5488 449.7408z"  horiz-adv-x="1024" />

    
    <glyph glyph-name="xingxing-" unicode="&#58927;" d="M1024 465.92a56.7296 56.7296 0 0 0-17.408-38.5024l-168.7552-204.8v-267.6736a34.816 34.816 0 0 0-34.816-34.816 33.792 33.792 0 0 0-9.6256 2.048L512 13.1072l-282.624-91.3408a33.5872 33.5872 0 0 0-8.192-1.6384 34.816 34.816 0 0 0-32.3584 21.9136l-2.6624 303.7184L20.48 432.5376c-8.3968 9.216-20.48 19.0464-20.48 33.3824a34.6112 34.6112 0 0 0 23.3472 32.5632l279.3472 95.4368 163.84 229.7856c9.8304 9.8304 20.48 23.3472 34.816 23.3472s25.1904-13.5168 34.816-23.3472l186.1632-253.1328 279.3472-72.0896A34.6112 34.6112 0 0 0 1024 465.92z"  horiz-adv-x="1024" />

    
    <glyph glyph-name="shoucang-2" unicode="&#58928;" d="M514.048 44.032l-292.864-94.208-2.048 307.2-172.032 194.56-4.096 4.096c-4.096 2.048-8.192 8.192-8.192 10.24s2.048 2.048 4.096 2.048L327.68 566.272l167.936 235.52 4.096 4.096 8.192 8.192 8.192-8.192 4.096-4.096 190.464-260.096 288.768-73.728s2.048-2.048 2.048-4.096c0-4.096-4.096-12.288-8.192-16.384l-2.048-2.048-176.128-215.04v-278.528c0-2.048-2.048-4.096-4.096-4.096l-296.96 96.256zM501.76 766.976l172.032-233.472 12.288-18.432 20.48-6.144 239.616-61.44-155.648-188.416-14.336-16.384v-253.952l-245.76 79.872-16.384 6.144-18.432-6.144-243.712-77.824-2.048 253.952v22.528l-14.336 16.384-149.504 167.936 239.616 81.92 18.432 6.144 12.288 16.384 145.408 210.944m0 79.872c-14.336 0-24.576-14.336-34.816-22.528l-163.84-229.376-278.528-94.208c-14.336-4.096-22.528-16.384-22.528-32.768 0-22.528 12.288-24.576 20.48-34.816l163.84-186.368 2.048-303.104c6.144-12.288 18.432-22.528 32.768-22.528 2.048 0 6.144 0 8.192 2.048L512 15.36l280.576-90.112c4.096 0 6.144-2.048 10.24-2.048 18.432 0 34.816 16.384 34.816 34.816v266.24l167.936 206.848c8.192 8.192 16.384 22.528 16.384 38.912 0 14.336-10.24 28.672-22.528 32.768l-278.528 71.68-186.368 253.952c-6.144 4.096-16.384 18.432-32.768 18.432z"  horiz-adv-x="1024" />

    
    <glyph glyph-name="xuankao-" unicode="&#58930;" d="M854.016-128H169.984C98.304-128 40.96-70.656 40.96 1.024V766.976C43.008 838.656 100.352 896 169.984 896h681.984c71.68 0 129.024-57.344 129.024-129.024v-768c0-69.632-57.344-126.976-126.976-126.976zM169.984 287.744c0-6.144 4.096-10.24 10.24-10.24h276.48c6.144 0 10.24 4.096 10.24 10.24v22.528c0 6.144-4.096 10.24-10.24 10.24H180.224c-6.144 0-10.24-4.096-10.24-10.24v-22.528zM385.024 705.536c0 34.816-28.672 63.488-63.488 63.488h-86.016c-34.816 0-63.488-28.672-63.488-63.488v-86.016c0-34.816 28.672-63.488 63.488-63.488h86.016c34.816 0 63.488 28.672 63.488 63.488V705.536z m296.96-268.288c0 6.144-4.096 10.24-10.24 10.24h-491.52c-6.144 0-10.24-4.096-10.24-10.24v-22.528c0-6.144 4.096-10.24 10.24-10.24h491.52c6.144 0 10.24 4.096 10.24 10.24v22.528z m165.888-100.352l-45.056 45.056c-4.096 4.096-10.24 4.096-14.336 0L471.04 66.56c-4.096-4.096-6.144-8.192-6.144-8.192v-59.392h59.392s2.048 2.048 6.144 8.192l249.856 249.856-59.392 59.392 30.72 30.72 59.392-59.392 36.864 36.864c4.096 2.048 4.096 8.192 0 12.288z"  horiz-adv-x="1024" />

    
    <glyph glyph-name="shengyaguihua-1" unicode="&#58931;" d="M512-128C229.376-128 0 101.376 0 384S229.376 896 512 896s512-229.376 512-512-229.376-512-512-512z m274.432 221.184L573.44 461.824c0 2.048-2.048 2.048-2.048 4.096 28.672 18.432 49.152 51.2 49.152 88.064 0 51.2-36.864 94.208-86.016 104.448V779.264c0 6.144-4.096 10.24-10.24 10.24h-20.48c-6.144 0-10.24-4.096-10.24-10.24v-118.784c-49.152-10.24-86.016-53.248-86.016-104.448 0-36.864 18.432-67.584 45.056-88.064l-2.048-2.048-215.04-368.64c-2.048-4.096-2.048-12.288 4.096-14.336l18.432-10.24c4.096-2.048 12.288-2.048 14.336 4.096l212.992 368.64c2.048 2.048 2.048 4.096 2.048 6.144 8.192-2.048 16.384-2.048 24.576-2.048 8.192 0 16.384 2.048 24.576 2.048-2.048-2.048-2.048-6.144 0-10.24l212.992-370.688c2.048-4.096 10.24-6.144 14.336-4.096l18.432 10.24c6.144 4.096 6.144 10.24 4.096 16.384zM512 490.496c-34.816 0-63.488 28.672-63.488 63.488 0 34.816 28.672 63.488 63.488 63.488 34.816 0 63.488-28.672 63.488-63.488 0-34.816-28.672-63.488-63.488-63.488z"  horiz-adv-x="1024" />

    
    <glyph glyph-name="yikao_huaban" unicode="&#58932;" d="M606.208 171.008s-126.976-6.144-43.008-126.976c0 0 88.064-155.648-57.344-169.984C231.424-117.76 10.24 107.52 10.24 384c0 282.624 229.376 512 512 512 233.472 0 432.128-157.696 491.52-372.736 2.048-102.4-22.528-407.552-407.552-352.256zM223.232 556.032c-47.104 0-86.016-38.912-86.016-86.016S176.128 384 223.232 384s86.016 38.912 86.016 86.016-38.912 86.016-86.016 86.016z m149.504 212.992c-47.104 0-86.016-38.912-86.016-86.016s38.912-86.016 86.016-86.016 86.016 38.912 86.016 86.016-38.912 86.016-86.016 86.016z m276.48 0c-47.104 0-86.016-38.912-86.016-86.016s38.912-86.016 86.016-86.016 86.016 38.912 86.016 86.016-38.912 86.016-86.016 86.016zM798.72 556.032c-47.104 0-86.016-38.912-86.016-86.016S751.616 384 798.72 384c47.104 0 86.016 38.912 86.016 86.016s-38.912 86.016-86.016 86.016z"  horiz-adv-x="1024" />

    
    <glyph glyph-name="sanweiyiti_huaban" unicode="&#58933;" d="M792.576-78.848c-120.832 0-221.184 94.208-231.424 210.944h-98.304c-10.24-118.784-108.544-210.944-231.424-210.944-126.976 0-231.424 102.4-231.424 231.424S104.448 384 231.424 384c30.72 0 59.392-6.144 88.064-16.384l38.912 67.584c-53.248 43.008-88.064 108.544-88.064 182.272 0 129.024 104.448 231.424 231.424 231.424s231.424-104.448 231.424-231.424c0-63.488-26.624-122.88-67.584-163.84l51.2-79.872c22.528 8.192 49.152 12.288 73.728 12.288C919.552 384 1024 279.552 1024 152.576s-104.448-231.424-231.424-231.424zM290.816 191.488c0 32.768-26.624 57.344-57.344 57.344-32.768 0-57.344-26.624-57.344-57.344 0-32.768 26.624-57.344 57.344-57.344-43.008 0-77.824-34.816-77.824-77.824h153.6c0 43.008-34.816 77.824-77.824 77.824 32.768-2.048 59.392 24.576 59.392 57.344z m270.336 483.328c0 32.768-26.624 57.344-57.344 57.344-32.768 0-57.344-26.624-57.344-57.344s26.624-57.344 57.344-57.344c-43.008 0-77.824-34.816-77.824-77.824h153.6c0 43.008-34.816 77.824-77.824 77.824 32.768-2.048 59.392 24.576 59.392 57.344zM634.88 424.96c-36.864-26.624-83.968-40.96-133.12-40.96-40.96 0-79.872 10.24-112.64 28.672l-36.864-63.488c61.44-36.864 102.4-102.4 108.544-178.176h98.304c6.144 79.872 53.248 147.456 118.784 184.32L634.88 424.96z m215.04-233.472c0 32.768-26.624 57.344-57.344 57.344-32.768 0-57.344-26.624-57.344-57.344 0-32.768 26.624-57.344 57.344-57.344-43.008 0-77.824-34.816-77.824-77.824h153.6c0 43.008-34.816 77.824-77.824 77.824 32.768-2.048 59.392 24.576 59.392 57.344z"  horiz-adv-x="1024" />

    
    <glyph glyph-name="liuxue_huaban" unicode="&#58934;" d="M1024 535.552c0-4.096 0-8.192-2.048-12.288v-352.256c0-16.384-14.336-30.72-30.72-30.72h-22.528c-16.384 0-30.72 14.336-30.72 30.72V449.536L532.48 209.92c-16.384-10.24-43.008-10.24-59.392 0L18.432 488.448h4.096C8.192 498.688 0 517.12 0 535.552c0 24.576 14.336 45.056 34.816 55.296h-2.048L475.136 850.944v-6.144c12.288 14.336 28.672 22.528 47.104 22.528 24.576 0 45.056-14.336 55.296-34.816v10.24l413.696-251.904h-2.048c20.48-10.24 34.816-30.72 34.816-55.296zM473.088 123.904c16.384-10.24 43.008-10.24 59.392 0l333.824 196.608h12.288v-186.368l-2.048-2.048c2.048-14.336 0-28.672-8.192-40.96-8.192-12.288-18.432-20.48-30.72-26.624v-2.048l-288.768-151.552V-87.04c-10.24-8.192-24.576-14.336-38.912-14.336-16.384 0-30.72 6.144-40.96 16.384v-2.048l-266.24 137.216 14.336 14.336c-22.528-8.192-47.104-2.048-63.488 14.336-14.336 14.336-18.432 32.768-18.432 49.152v192.512h14.336l323.584-196.608z"  horiz-adv-x="1024" />

    
    <glyph glyph-name="dingwei" unicode="&#58941;" d="M512 896C290.816 896 110.592 715.776 110.592 494.592 110.592 259.072 299.008-128 512-128s401.408 387.072 401.408 622.592C913.408 715.776 733.184 896 512 896z m0-622.592c-98.304 0-178.176 79.872-178.176 178.176 0 98.304 79.872 178.176 178.176 178.176s178.176-79.872 178.176-178.176c0-98.304-79.872-178.176-178.176-178.176z"  horiz-adv-x="1024" />

    
    <glyph glyph-name="icon-test" unicode="&#58943;" d="M856.733068 502.310757c-2.039841 6.119522-6.119522 10.199203-8.159363 16.318725-12.239044 22.438247-22.438247 44.876494-28.557769 65.2749l-10.199203 34.677291-32.63745-14.278884c-34.677291-16.318725-142.788845-67.314741-148.908367-171.346614-10.199203 24.478088-95.87251 242.741036-65.2749 399.808765l12.239044 63.23506-57.115538-30.59761C412.047809 806.247012 242.741036 661.418327 308.015936 341.163347c-24.478088 10.199203-71.394422 42.836653-89.752988 101.992031l-22.438247 69.354582-34.677291-63.23506c-40.796813-75.474104-57.115538-150.948207-46.916334-222.342629 16.318725-124.430279 112.191235-240.701195 279.458167-342.693227l4.079681-2.039841h6.119522c12.239044-2.039841 50.996016-8.159363 93.83267-8.159362 24.478088 0 55.075697 2.039841 83.633466 12.239043h2.03984l2.039841 2.039841c93.832669 57.115538 308.015936 218.262948 316.175299 456.924303 6.119522 61.195219-20.398406 110.151394-44.876494 157.067729z"  horiz-adv-x="1024" />

    
    <glyph glyph-name="icon-test1" unicode="&#58944;" d="M946.176 730.112c-49.152 49.152-116.736 75.776-186.368 75.776-69.632 0-137.216-28.672-186.368-75.776-20.48-20.48-36.864-45.056-51.2-73.728L450.56 728.064l-30.72 26.624c-43.008 32.768-96.256 49.152-153.6 49.152-69.632 0-137.216-28.672-186.368-75.776-90.112-90.112-104.448-233.472-32.768-337.92l2.048-2.048 2.048-2.048L450.56-15.36h2.048c18.432-16.384 38.912-22.528 61.44-22.528 24.576 0 47.104 8.192 63.488 24.576l368.64 370.688c100.352 102.4 100.352 270.336 0 372.736z"  horiz-adv-x="1024" />

    
    <glyph glyph-name="xueli" unicode="&#58945;" d="M139.264 314.368v-208.896c0-114.688 94.208-208.896 208.896-208.896h327.68c114.688 0 208.896 94.208 208.896 208.896V314.368L512 82.944 139.264 314.368zM976.896 175.104H1024v-47.104h-47.104zM512 871.424L0 500.736l512-325.632 464.896 294.912V220.16H1024V498.688z"  horiz-adv-x="1024" />

    
    <glyph glyph-name="password" unicode="&#58946;" d="M536.576 41.984c-14.336 0-24.576 10.24-24.576 24.576v77.824c-28.672 10.24-49.152 36.864-49.152 69.632 0 40.96 32.768 73.728 73.728 73.728s73.728-32.768 73.728-73.728c0-32.768-20.48-59.392-49.152-69.632v-77.824c0-12.288-12.288-24.576-24.576-24.576z m364.544 122.88v-194.56c0-53.248-43.008-98.304-98.304-98.304H219.136C165.888-128 122.88-84.992 122.88-29.696v389.12c0 53.248 43.008 98.304 98.304 98.304h73.728V689.152C292.864 803.84 385.024 896 499.712 896h24.576c114.688 0 206.848-92.16 206.848-206.848v-231.424h73.728c53.248 0 98.304-43.008 98.304-98.304v-73.728h-49.152v73.728c0 26.624-22.528 49.152-49.152 49.152H219.136c-26.624 0-49.152-22.528-49.152-49.152v-389.12c0-26.624 22.528-49.152 49.152-49.152h585.728c26.624 0 49.152 22.528 49.152 49.152v194.56H901.12zM342.016 457.728h342.016V676.864c0 94.208-75.776 169.984-169.984 169.984s-169.984-75.776-169.984-169.984v-219.136z"  horiz-adv-x="1024" />

    
    <glyph glyph-name="phone" unicode="&#58947;" d="M395.264 406.528c-12.288 0-22.528 10.24-22.528 22.528 0 12.288 10.24 22.528 22.528 22.528h22.528c12.288 0 22.528-10.24 22.528-22.528 0-12.288-10.24-22.528-22.528-22.528h-22.528z m116.736 0c-12.288 0-22.528 10.24-22.528 22.528 0 12.288 10.24 22.528 22.528 22.528h22.528c12.288 0 22.528-10.24 22.528-22.528 0-12.288-10.24-22.528-22.528-22.528H512z m116.736 0c-12.288 0-22.528 10.24-22.528 22.528 0 12.288 10.24 22.528 22.528 22.528h22.528c12.288 0 22.528-10.24 22.528-22.528 0-12.288-10.24-22.528-22.528-22.528h-22.528zM860.16 617.472v-651.264c0-51.2-40.96-92.16-92.16-92.16h-512C204.8-128 163.84-87.04 163.84-35.84v839.68C163.84 855.04 204.8 896 256 896h512C819.2 896 860.16 855.04 860.16 803.84V711.68H208.896v-581.632h604.16V617.472H860.16z m-45.056 139.264V803.84c0 26.624-20.48 47.104-47.104 47.104h-512c-26.624 0-47.104-20.48-47.104-47.104v-47.104h606.208z m-606.208-675.84v-116.736c0-26.624 20.48-47.104 47.104-47.104h512c26.624 0 47.104 20.48 47.104 47.104v116.736H208.896z m315.392-116.736c-18.432 0-34.816 16.384-34.816 34.816 0 18.432 16.384 34.816 34.816 34.816 18.432 0 34.816-16.384 34.816-34.816 0-18.432-16.384-34.816-34.816-34.816z"  horiz-adv-x="1024" />

    
    <glyph glyph-name="username" unicode="&#58948;" d="M950.272-66.56c0-22.528-12.288-43.008-30.72-53.248-4.096-4.096-10.24-8.192-18.432-8.192H219.136c-14.336 0-24.576 10.24-24.576 24.576s10.24 24.576 24.576 24.576h610.304c36.864 0 67.584 28.672 71.68 65.536-8.192 180.224-157.696 323.584-339.968 323.584h-98.304C274.432 310.272 122.88 158.72 122.88-29.696V-128H73.728v98.304c0 215.04 174.08 389.12 389.12 389.12h98.304c215.04 0 389.12-174.08 389.12-389.12V-66.56zM512 408.576c-135.168 0-243.712 108.544-243.712 243.712S376.832 896 512 896s243.712-108.544 243.712-243.712S647.168 408.576 512 408.576z m0 438.272c-108.544 0-194.56-88.064-194.56-194.56s88.064-194.56 194.56-194.56 194.56 88.064 194.56 194.56-86.016 194.56-194.56 194.56z"  horiz-adv-x="1024" />

    
    <glyph glyph-name="zhunkaozhenghao" unicode="&#58949;" d="M800.768 3.072h-77.824c-14.336 0-26.624 12.288-26.624 26.624s12.288 26.624 26.624 26.624h77.824c14.336 0 26.624-12.288 26.624-26.624s-12.288-26.624-26.624-26.624zM301.056 633.856c0 57.344 47.104 104.448 104.448 104.448S512 691.2 512 633.856s-47.104-104.448-104.448-104.448-106.496 45.056-106.496 104.448z m157.696 0c0 28.672-22.528 53.248-53.248 53.248-28.672 0-53.248-22.528-53.248-53.248s22.528-53.248 53.248-53.248 53.248 24.576 53.248 53.248z m157.696-342.016v-26.624H354.304c-14.336 0-26.624 12.288-26.624 26.624 0 14.336 12.288 26.624 26.624 26.624h206.848c-12.288 73.728-77.824 131.072-155.648 131.072-86.016 0-157.696-69.632-157.696-157.696v-26.624H196.608v26.624c0 116.736 94.208 210.944 210.944 210.944s208.896-94.208 208.896-210.944z m184.32-77.824h-77.824c-14.336 0-26.624 12.288-26.624 26.624s12.288 26.624 26.624 26.624h77.824c14.336 0 26.624-12.288 26.624-26.624s-12.288-26.624-26.624-26.624z m0-106.496h-157.696c-14.336 0-26.624 12.288-26.624 26.624 0 14.336 12.288 26.624 26.624 26.624h157.696c14.336 0 26.624-12.288 26.624-26.624 0-14.336-12.288-26.624-26.624-26.624z m157.696 473.088v-604.16c0-57.344-47.104-104.448-104.448-104.448H169.984c-57.344 0-104.448 47.104-104.448 104.448V791.552C65.536 848.896 112.64 896 169.984 896h681.984c57.344 0 104.448-47.104 104.448-104.448v-104.448h-53.248V791.552c0 28.672-22.528 53.248-53.248 53.248H169.984c-28.672 0-53.248-22.528-53.248-53.248v-813.056c0-28.672 22.528-53.248 53.248-53.248h681.984c28.672 0 53.248 22.528 53.248 53.248V580.608h53.248z"  horiz-adv-x="1024" />

    
    <glyph glyph-name="xiangguanzhuanye-" unicode="&#58950;" d="M790.528 855.04c106.496 0 192.512-86.016 192.512-192.512v-559.104c0-106.496-86.016-192.512-192.512-192.512H233.472C126.976-87.04 40.96-1.024 40.96 105.472V662.528C40.96 769.024 126.976 855.04 233.472 855.04h557.056m0 40.96H233.472C104.448 896 0 791.552 0 662.528v-559.104C0-23.552 104.448-128 233.472-128h559.104C919.552-128 1024-23.552 1024 105.472V662.528C1024 791.552 919.552 896 790.528 896zM233.472 336.896h163.84c12.288 0 22.528-10.24 22.528-22.528 0-12.288-10.24-22.528-22.528-22.528h-163.84c-12.288 0-22.528 10.24-22.528 22.528-2.048 12.288 8.192 22.528 22.528 22.528zM233.472 220.16h163.84c12.288 0 22.528-10.24 22.528-22.528s-10.24-22.528-22.528-22.528h-163.84c-12.288 0-22.528 10.24-22.528 22.528s8.192 22.528 22.528 22.528zM233.472 105.472H512c12.288 0 22.528-10.24 22.528-22.528s-10.24-22.528-22.528-22.528H233.472c-12.288 0-22.528 10.24-22.528 22.528s8.192 22.528 22.528 22.528zM790.528 715.776c4.096 0 6.144-2.048 6.144-6.144v-372.736l-108.544 79.872c-8.192 6.144-16.384 8.192-24.576 8.192-8.192 0-16.384-2.048-24.576-8.192l-108.544-79.872V709.632c0 4.096 2.048 6.144 6.144 6.144h253.952m0 40.96H534.528c-26.624 0-47.104-20.48-47.104-47.104v-372.736c0-20.48 14.336-38.912 32.768-45.056h6.144c6.144 0 10.24 2.048 16.384 6.144l118.784 86.016 122.88-88.064c4.096-2.048 8.192-4.096 12.288-4.096h2.048c22.528 4.096 38.912 22.528 38.912 45.056V709.632c0 26.624-20.48 47.104-47.104 47.104z"  horiz-adv-x="1024" />

    
    <glyph glyph-name="suoshuhangye-" unicode="&#58952;" d="M790.528 855.04c106.496 0 192.512-86.016 192.512-192.512v-559.104c0-106.496-86.016-192.512-192.512-192.512H233.472C126.976-87.04 40.96-1.024 40.96 105.472V662.528C40.96 769.024 126.976 855.04 233.472 855.04h557.056m0 40.96H233.472C104.448 896 0 791.552 0 662.528v-559.104C0-23.552 104.448-128 233.472-128h559.104C919.552-128 1024-23.552 1024 105.472V662.528C1024 791.552 919.552 896 790.528 896zM720.896 177.152H303.104c-63.488 0-112.64 51.2-112.64 112.64h40.96c0-40.96 32.768-71.68 71.68-71.68h419.84c40.96 0 71.68 32.768 71.68 71.68h40.96c0-61.44-51.2-112.64-114.688-112.64zM675.84 37.888H348.16c-63.488 0-112.64 51.2-112.64 112.64h40.96c0-40.96 32.768-71.68 71.68-71.68h327.68c40.96 0 71.68 32.768 71.68 71.68h40.96c0-61.44-51.2-112.64-112.64-112.64zM768 316.416H243.712c-32.768 4.096-61.44 22.528-77.824 51.2-18.432 30.72-22.528 67.584-10.24 100.352l57.344 155.648c8.192 24.576 32.768 106.496 112.64 106.496h372.736c36.864 0 86.016-18.432 112.64-108.544l57.344-153.6c12.288-32.768 8.192-69.632-10.24-100.352-16.384-28.672-45.056-47.104-77.824-51.2h-12.288zM325.632 689.152c-22.528 0-53.248-8.192-73.728-77.824l-59.392-155.648c-8.192-20.48-6.144-45.056 6.144-65.536 10.24-18.432 28.672-28.672 47.104-30.72H774.144c20.48 2.048 36.864 14.336 47.104 30.72 12.288 18.432 14.336 43.008 6.144 65.536L772.096 609.28c-16.384 53.248-40.96 79.872-73.728 79.872H325.632z"  horiz-adv-x="1024" />

    
    <glyph glyph-name="youxiang" unicode="&#58953;" d="M823.296 9.216H200.704c-110.592 0-200.704 90.112-200.704 200.704v348.16c0 110.592 90.112 200.704 200.704 200.704h624.64c110.592 0 200.704-90.112 200.704-200.704v-350.208c-2.048-108.544-92.16-198.656-202.752-198.656zM225.28 683.008c-14.336 0-26.624-2.048-38.912-6.144l258.048-256c30.72-30.72 79.872-30.72 110.592 0l260.096 258.048c-6.144 0-10.24 2.048-16.384 2.048H225.28z m722.944-149.504c0 49.152-24.576 94.208-61.44 120.832-2.048-2.048-4.096-6.144-6.144-8.192l6.144-4.096-276.48-274.432c-61.44-61.44-161.792-61.44-223.232 0L116.736 637.952c-26.624-26.624-40.96-63.488-40.96-102.4v-299.008c0-81.92 67.584-149.504 149.504-149.504h573.44c81.92 0 149.504 67.584 149.504 149.504V533.504z"  horiz-adv-x="1026" />

    
    <glyph glyph-name="dianhua" unicode="&#58954;" d="M778.24-128C20.48-91.136 14.336 553.984 22.528 697.344 28.672 809.984 129.024 896 239.616 896c120.832 0 221.184-104.448 221.184-233.472 0-116.736-81.92-215.04-188.416-231.424-14.336 26.624-26.624 55.296-38.912 81.92h2.048c75.776 0 135.168 61.44 135.168 137.216 2.048 53.248-6.144 143.36-131.072 163.84C174.08 814.08 104.448 758.784 102.4 648.192c0-331.776 184.32-684.032 675.84-684.032 75.776 0 135.168 61.44 135.168 137.216s-61.44 137.216-135.168 137.216c-75.776 0-135.168-61.44-135.168-137.216-30.72 10.24-59.392 22.528-86.016 36.864 18.432 108.544 110.592 192.512 223.232 192.512 124.928 0 225.28-102.4 225.28-229.376C1003.52-25.6 903.168-128 778.24-128z"  horiz-adv-x="1024" />

    
    <glyph glyph-name="xiaotieshi-" unicode="&#58955;" d="M847.872 275.456c0-45.056-34.816-79.872-77.824-79.872H251.904c-43.008 0-77.824 36.864-77.824 79.872 0 38.912 26.624 71.68 63.488 79.872l43.008 407.552c-30.72 6.144-51.2 32.768-51.2 65.536 0 36.864 30.72 67.584 67.584 67.584h432.128c36.864 0 67.584-30.72 67.584-67.584 0-30.72-22.528-57.344-51.2-65.536l43.008-407.552c32.768-6.144 59.392-38.912 59.392-79.872zM727.04 842.752h-430.08c-8.192 0-14.336-6.144-14.336-14.336s6.144-14.336 14.336-14.336h432.128c8.192 0 14.336 6.144 14.336 14.336s-8.192 14.336-16.384 14.336zM286.72 357.376h452.608L696.32 760.832H327.68l-40.96-403.456z m-34.816-53.248c-14.336 0-26.624-12.288-26.624-26.624 0-14.336 12.288-26.624 26.624-26.624h518.144c14.336 0 26.624 12.288 26.624 26.624 0 14.336-12.288 26.624-26.624 26.624H251.904z m274.432-135.168c14.336 0 26.624-12.288 26.624-26.624v-241.664c0-14.336-12.288-26.624-26.624-26.624-14.336 0-26.624 12.288-26.624 26.624V142.336c-2.048 14.336 10.24 26.624 26.624 26.624z"  horiz-adv-x="1024" />

    
    <glyph glyph-name="keshu" unicode="&#58957;" d="M802.816-128H221.184c-102.4 0-186.368 83.968-186.368 186.368V709.632c0 102.4 83.968 186.368 186.368 186.368h581.632c102.4 0 186.368-83.968 186.368-186.368v-651.264c0-102.4-83.968-186.368-186.368-186.368z m0 847.872c0 20.48-16.384 36.864-36.864 36.864h-204.8c-20.48 0-36.864-16.384-36.864-36.864v-296.96c0-20.48 16.384-36.864 36.864-36.864l102.4 73.728 102.4-73.728c20.48 0 36.864 16.384 36.864 36.864V719.872z"  horiz-adv-x="1024" />

    
    <glyph glyph-name="diqu" unicode="&#58958;" d="M999.424 332.8h-104.448v-362.496h53.248c18.432 0 32.768-14.336 32.768-32.768v-4.096c0-18.432-14.336-32.768-32.768-32.768H75.776c-18.432 0-32.768 14.336-32.768 32.768v4.096c0 18.432 14.336 32.768 32.768 32.768h53.248V332.8H24.576c-65.536 67.584 18.432 106.496 83.968 172.032L393.216 795.648c96.256 96.256 147.456 92.16 237.568 0L915.456 506.88c65.536-67.584 149.504-108.544 83.968-174.08z m-337.92-20.48c0 12.288-10.24 20.48-20.48 20.48h-63.488c-12.288 0-20.48-10.24-20.48-20.48v-63.488c0-12.288 10.24-20.48 20.48-20.48h63.488c12.288 0 20.48 10.24 20.48 20.48v63.488z m0-149.504c0 12.288-10.24 20.48-20.48 20.48h-63.488c-12.288 0-20.48-10.24-20.48-20.48V97.28c0-12.288 10.24-20.48 20.48-20.48h63.488c12.288 0 20.48 10.24 20.48 20.48v65.536z m149.504 149.504c0 12.288-10.24 20.48-20.48 20.48h-63.488c-12.288 0-20.48-10.24-20.48-20.48v-63.488c0-12.288 10.24-20.48 20.48-20.48h63.488c12.288 0 20.48 10.24 20.48 20.48v63.488z m0-149.504c0 12.288-10.24 20.48-20.48 20.48h-63.488c-12.288 0-20.48-10.24-20.48-20.48V97.28c0-12.288 10.24-20.48 20.48-20.48h63.488c12.288 0 20.48 10.24 20.48 20.48v65.536z"  horiz-adv-x="1024" />

    
    <glyph glyph-name="pici" unicode="&#58959;" d="M790.528 896H233.472c-102.4 0-186.368-83.968-186.368-186.368v-651.264c0-102.4 83.968-186.368 186.368-186.368H790.528c102.4 0 186.368 83.968 186.368 186.368V709.632c0 102.4-81.92 186.368-186.368 186.368z m159.744-837.632c0-88.064-71.68-159.744-159.744-159.744h-182.272c53.248 32.768 90.112 92.16 90.112 159.744V709.632c0 67.584-36.864 126.976-90.112 159.744h182.272c88.064 0 159.744-71.68 159.744-159.744v-651.264z m-129.024-90.112c-2.048 0-4.096 0-6.144 2.048-6.144 4.096-10.24 10.24-6.144 18.432 10.24 22.528 14.336 45.056 14.336 69.632V709.632c0 26.624-6.144 53.248-18.432 77.824-4.096 6.144 0 14.336 6.144 18.432 6.144 4.096 14.336 0 18.432-6.144 14.336-28.672 20.48-57.344 20.48-90.112v-651.264c0-28.672-6.144-55.296-18.432-81.92 0-4.096-4.096-8.192-10.24-8.192z"  horiz-adv-x="1024" />

    
    <glyph glyph-name="weici" unicode="&#58960;" d="M974.848-78.848h-100.352c-26.624 0-49.152 22.528-49.152 49.152V222.208c0 26.624 22.528 49.152 49.152 49.152h100.352c26.624 0 49.152-22.528 49.152-49.152v-249.856c0-28.672-22.528-51.2-49.152-51.2z m-276.48 0h-100.352c-26.624 0-49.152 22.528-49.152 49.152V795.648c0 26.624 22.528 49.152 49.152 49.152h100.352c26.624 0 49.152-22.528 49.152-49.152v-823.296c2.048-28.672-20.48-51.2-49.152-51.2z m-274.432 0h-100.352c-26.624 0-49.152 22.528-49.152 49.152V570.368c0 26.624 22.528 49.152 49.152 49.152h100.352c26.624 0 49.152-22.528 49.152-49.152v-600.064c2.048-26.624-20.48-49.152-49.152-49.152z m-274.432 0H49.152c-26.624 0-49.152 22.528-49.152 49.152V222.208c0 26.624 22.528 49.152 49.152 49.152h100.352c26.624 0 49.152-22.528 49.152-49.152v-249.856c2.048-28.672-20.48-51.2-49.152-51.2z"  horiz-adv-x="1024" />

    
    <glyph glyph-name="fenshu" unicode="&#58961;" d="M802.816-128H221.184c-102.4 0-186.368 83.968-186.368 186.368V709.632c0 102.4 83.968 186.368 186.368 186.368h581.632c102.4 0 186.368-83.968 186.368-186.368v-651.264c0-102.4-83.968-186.368-186.368-186.368zM174.08 535.552c0 18.432-16.384 34.816-34.816 34.816-18.432 0-34.816-16.384-34.816-34.816v-325.632c0-18.432 16.384-34.816 34.816-34.816 18.432 0 34.816 16.384 34.816 34.816V535.552z m720.896-81.92c-2.048 4.096-4.096 10.24-8.192 12.288-6.144 6.144-14.336 10.24-24.576 10.24-18.432 0-34.816-16.384-34.816-34.816 0-10.24 4.096-18.432 10.24-24.576l-2.048-2.048c8.192-16.384 14.336-34.816 14.336-55.296 0-63.488-51.2-116.736-116.736-116.736-63.488 0-116.736 51.2-116.736 116.736 0 63.488 51.2 116.736 116.736 116.736 8.192 0 16.384 0 24.576-2.048-4.096 2.048-6.144 6.144-8.192 8.192 6.144-4.096 12.288-6.144 18.432-6.144 18.432 0 34.816 16.384 34.816 34.816s-16.384 36.864-34.816 36.864c-4.096 0-8.192 0-10.24-2.048-8.192 2.048-16.384 2.048-24.576 2.048-61.44 0-116.736-30.72-151.552-77.824-32.768 47.104-88.064 77.824-151.552 77.824-102.4 0-186.368-83.968-186.368-186.368s83.968-186.368 186.368-186.368c61.44 0 116.736 30.72 151.552 77.824 32.768-47.104 88.064-77.824 151.552-77.824 102.4 0 186.368 83.968 186.368 186.368 0 32.768-10.24 63.488-24.576 92.16zM430.08 244.736c-63.488 0-116.736 51.2-116.736 116.736 0 63.488 51.2 116.736 116.736 116.736s116.736-51.2 116.736-116.736-51.2-116.736-116.736-116.736z"  horiz-adv-x="1024" />

    
    <glyph glyph-name="chongyichong-" unicode="&#58967;" d="M116.736 730.112h778.24V35.84h-778.24zM802.816-128H221.184c-102.4 0-186.368 83.968-186.368 186.368V709.632c0 102.4 83.968 186.368 186.368 186.368h581.632c102.4 0 186.368-83.968 186.368-186.368v-651.264c0-102.4-83.968-186.368-186.368-186.368zM268.288 627.712c0 18.432-16.384 34.816-34.816 34.816-18.432 0-34.816-16.384-34.816-34.816v-69.632c0-18.432 16.384-34.816 34.816-34.816 18.432 0 34.816 16.384 34.816 34.816v69.632z m0-208.896c0 18.432-16.384 34.816-34.816 34.816-18.432 0-34.816-16.384-34.816-34.816v-325.632c0-18.432 16.384-34.816 34.816-34.816 18.432 0 34.816 16.384 34.816 34.816V418.816z m581.632 57.344c0 51.2-40.96 92.16-92.16 92.16h-116.736v57.344c0 18.432-16.384 34.816-34.816 34.816-18.432 0-34.816-16.384-34.816-34.816V568.32h-116.736c-51.2 0-92.16-40.96-92.16-92.16V384c0-51.2 40.96-92.16 92.16-92.16h116.736v-198.656c0-18.432 16.384-34.816 34.816-34.816 18.432 0 34.816 16.384 34.816 34.816v198.656H757.76c51.2 0 92.16 40.96 92.16 92.16v92.16z m-94.208-114.688h-116.736v139.264h116.736c12.288 0 22.528-10.24 22.528-22.528V384c2.048-12.288-8.192-22.528-22.528-22.528zM430.08 384v92.16c0 12.288 10.24 22.528 22.528 22.528h116.736v-139.264h-116.736c-12.288 2.048-22.528 12.288-22.528 24.576z"  horiz-adv-x="1024" />

    
    <glyph glyph-name="wenyiwen-" unicode="&#58968;" d="M137.216 730.112h778.24V35.84h-778.24zM802.816-128H221.184c-102.4 0-186.368 83.968-186.368 186.368V709.632c0 102.4 83.968 186.368 186.368 186.368h581.632c102.4 0 186.368-83.968 186.368-186.368v-651.264c0-102.4-83.968-186.368-186.368-186.368zM221.184 93.184c0-18.432 16.384-34.816 34.816-34.816 18.432 0 34.816 16.384 34.816 34.816V302.08c0 18.432-16.384 34.816-34.816 34.816-18.432 0-34.816-16.384-34.816-34.816v-208.896z m221.184 499.712c18.432 0 34.816 16.384 34.816 34.816 0 18.432-16.384 34.816-34.816 34.816h-186.368c-18.432 0-34.816-16.384-34.816-34.816 0-18.432 16.384-34.816 34.816-34.816h57.344v-92.16h-104.448c-18.432 0-34.816-16.384-34.816-34.816 0-18.432 16.384-34.816 34.816-34.816h104.448v-337.92c0-18.432 16.384-34.816 34.816-34.816s34.816 16.384 34.816 34.816V431.104h57.344c18.432 0 34.816 16.384 34.816 34.816 0 18.432-16.384 34.816-34.816 34.816h-57.344v92.16h59.392zM477.184 302.08c0 18.432-16.384 34.816-34.816 34.816-18.432 0-34.816-16.384-34.816-34.816v-208.896c0-18.432 16.384-34.816 34.816-34.816 18.432 0 34.816 16.384 34.816 34.816V302.08z m303.104 198.656c0 45.056-30.72 81.92-73.728 90.112v2.048h2.048v22.528c0 51.2-40.96 92.16-92.16 92.16H593.92c-51.2 0-92.16-40.96-92.16-92.16V547.84h2.048c4.096-10.24 10.24-18.432 20.48-20.48v-2.048h163.84c12.288 0 22.528-10.24 22.528-22.528v-2.048c-4.096 2.048-8.192 2.048-12.288 2.048h-163.84c-18.432 0-34.816-16.384-34.816-34.816 0-18.432 16.384-34.816 34.816-34.816h163.84c4.096 0 8.192 2.048 12.288 2.048v-2.048c0-12.288-10.24-22.528-22.528-22.528h-163.84v-6.144c-14.336-4.096-22.528-16.384-22.528-32.768 0-14.336 10.24-28.672 22.528-32.768v-2.048h163.84c51.2 0 92.16 40.96 92.16 92.16v71.68z m-163.84-243.712v-22.528c0-18.432 16.384-34.816 34.816-34.816 18.432 0 34.816 16.384 34.816 34.816v22.528c0 18.432-16.384 34.816-34.816 34.816-18.432 0-34.816-16.384-34.816-34.816z m163.84-81.92H778.24c-4.096 14.336-18.432 22.528-32.768 22.528-14.336 0-28.672-10.24-32.768-22.528h-2.048v-22.528c0-12.288-10.24-22.528-22.528-22.528H593.92c-12.288 0-22.528 10.24-22.528 22.528v116.736h-2.048c-4.096 14.336-18.432 22.528-32.768 22.528-14.336 0-28.672-10.24-32.768-22.528h-2.048v-116.736c0-51.2 40.96-92.16 92.16-92.16h92.16c51.2 0 92.16 40.96 92.16 92.16v22.528z m92.16 81.92c0 18.432-16.384 34.816-34.816 34.816s-34.816-16.384-34.816-34.816v-22.528c0-18.432 16.384-34.816 34.816-34.816s34.816 16.384 34.816 34.816v22.528zM569.344 617.472c0 12.288 10.24 22.528 22.528 22.528H614.4c12.288 0 22.528-10.24 22.528-22.528v-22.528h-69.632v22.528z"  horiz-adv-x="1024" />

    
    <glyph glyph-name="baoyibao-" unicode="&#58969;" d="M122.88 730.112h778.24V35.84H122.88zM802.816-128H221.184c-102.4 0-186.368 83.968-186.368 186.368V709.632c0 102.4 83.968 186.368 186.368 186.368h581.632c102.4 0 186.368-83.968 186.368-186.368v-651.264c0-102.4-83.968-186.368-186.368-186.368z m-69.632 221.184c0-18.432 16.384-34.816 34.816-34.816s34.816 16.384 34.816 34.816v139.264c0 18.432-16.384 34.816-34.816 34.816s-34.816-16.384-34.816-34.816v-139.264z m-325.632 0c0-18.432 16.384-34.816 34.816-34.816 18.432 0 34.816 16.384 34.816 34.816v139.264c0 18.432-16.384 34.816-34.816 34.816-18.432 0-34.816-16.384-34.816-34.816v-139.264zM348.16 662.528H184.32c-18.432 0-34.816-16.384-34.816-34.816s16.384-34.816 34.816-34.816h61.44c-2.048-4.096-2.048-8.192-2.048-12.288v-489.472c0-18.432 16.384-34.816 34.816-34.816s34.816 16.384 34.816 34.816v491.52c0 4.096-2.048 8.192-2.048 12.288H348.16c18.432 0 34.816 16.384 34.816 34.816s-14.336 32.768-34.816 32.768zM790.528 384h-151.552v34.816c0 4.096-2.048 8.192-2.048 12.288h71.68c51.2 0 92.16 40.96 92.16 92.16v47.104c0 51.2-40.96 92.16-92.16 92.16h-186.368c-51.2 0-92.16-40.96-92.16-92.16v-47.104c0-51.2 40.96-92.16 92.16-92.16h49.152c-2.048-4.096-2.048-8.192-2.048-12.288V384h-151.552c-18.432 0-34.816-16.384-34.816-34.816 0-18.432 16.384-34.816 34.816-34.816h151.552v-221.184c0-18.432 16.384-34.816 34.816-34.816 18.432 0 34.816 16.384 34.816 34.816V314.368h151.552c18.432 0 34.816 16.384 34.816 34.816 0 18.432-14.336 34.816-34.816 34.816z m-290.816 139.264v47.104c0 12.288 10.24 22.528 22.528 22.528h186.368c12.288 0 22.528-10.24 22.528-22.528v-47.104c0-12.288-10.24-22.528-22.528-22.528h-186.368c-12.288 0-22.528 10.24-22.528 22.528z"  horiz-adv-x="1024" />

    
    <glyph glyph-name="zhuanyexuankao" unicode="&#59004;" d="M512 896c282.624 0 512-229.376 512-512S794.624-128 512-128 0 101.376 0 384 229.376 896 512 896zM512 896c282.624 0 512-229.376 512-512S794.624-128 512-128 0 101.376 0 384 229.376 896 512 896zM528.384 347.136l34.816-34.816c6.144-6.144 6.144-16.384 0-20.48l-2.048-2.048c-6.144-6.144-16.384-6.144-20.48 0l-34.816 34.816-34.816-34.816c-6.144-6.144-16.384-6.144-20.48 0l-2.048 2.048c-6.144 6.144-6.144 16.384 0 20.48l34.816 34.816-34.816 34.816c-6.144 6.144-6.144 16.384 0 20.48l2.048 2.048c6.144 6.144 16.384 6.144 20.48 0l34.816-34.816 34.816 34.816c6.144 6.144 16.384 6.144 20.48 0l2.048-2.048c6.144-6.144 6.144-16.384 0-20.48l-34.816-34.816zM806.912 283.648c-45.056-47.104-116.736-49.152-165.888-10.24v-22.528c0-8.192-6.144-16.384-16.384-16.384-8.192 0-16.384 6.144-16.384 16.384V603.136c0 8.192 6.144 16.384 16.384 16.384 8.192 0 16.384-6.144 16.384-16.384v-129.024c49.152 40.96 120.832 36.864 165.888-10.24 49.152-49.152 49.152-131.072 0-180.224zM389.12 234.496c-8.192 0-16.384 6.144-16.384 16.384v22.528c-49.152-40.96-120.832-36.864-165.888 10.24-49.152 49.152-49.152 131.072 0 180.224 49.152 49.152 126.976 49.152 176.128 0 0 0 4.096-6.144 6.144-6.144 8.192 0 16.384-6.144 16.384-16.384v-192.512c0-6.144-8.192-14.336-16.384-14.336z"  horiz-adv-x="1024" />

    
    <glyph glyph-name="kemuxuankao" unicode="&#59005;" d="M512 896c282.624 0 512-229.376 512-512S794.624-128 512-128 0 101.376 0 384 229.376 896 512 896zM329.728 607.232h63.488c59.392 0 106.496-47.104 106.496-106.496v-63.488c0-24.576-18.432-43.008-43.008-43.008h-63.488c-59.392 0-106.496 47.104-106.496 106.496v63.488c2.048 24.576 20.48 43.008 43.008 43.008zM575.488 363.52h63.488c59.392 0 106.496-47.104 106.496-106.496v-63.488c0-24.576-18.432-43.008-43.008-43.008h-63.488c-59.392 0-106.496 47.104-106.496 106.496v63.488c0 22.528 20.48 43.008 43.008 43.008zM641.024 607.232h63.488c24.576 0 43.008-18.432 43.008-43.008v-63.488c0-59.392-47.104-106.496-106.496-106.496h-63.488c-24.576 0-43.008 18.432-43.008 43.008v63.488c-2.048 59.392 47.104 106.496 106.496 106.496zM395.264 363.52h63.488c24.576 0 43.008-18.432 43.008-43.008v-63.488c0-59.392-47.104-106.496-106.496-106.496h-63.488c-24.576 0-43.008 18.432-43.008 43.008v63.488c0 57.344 47.104 106.496 106.496 106.496z"  horiz-adv-x="1024" />

    
    <glyph glyph-name="zhiyexuankao" unicode="&#59006;" d="M512 896c282.624 0 512-229.376 512-512S794.624-128 512-128 0 101.376 0 384 229.376 896 512 896zM681.984 640H342.016c-24.576 0-43.008-18.432-43.008-43.008V158.72c0-24.576 18.432-43.008 43.008-43.008h342.016c24.576 0 43.008 18.432 43.008 43.008v96.256V404.48v192.512c-2.048 24.576-20.48 43.008-45.056 43.008z m-106.496-196.608c6.144 6.144 16.384 6.144 22.528 0 16.384-16.384 30.72-38.912 36.864-61.44 2.048-8.192-2.048-16.384-10.24-18.432h-4.096c-6.144 0-12.288 4.096-14.336 10.24-6.144 18.432-14.336 34.816-28.672 47.104-8.192 6.144-8.192 16.384-2.048 22.528z m-118.784 2.048c-32.768-12.288-59.392-40.96-67.584-75.776-2.048-6.144-8.192-12.288-14.336-12.288h-4.096c-8.192 2.048-12.288 10.24-10.24 18.432 10.24 40.96 36.864 73.728 71.68 92.16-8.192 12.288-14.336 26.624-14.336 43.008 0 40.96 32.768 73.728 73.728 73.728s73.728-32.768 73.728-73.728-32.768-73.728-73.728-73.728c-14.336 0-24.576 4.096-34.816 8.192z m188.416-231.424h-116.736c-8.192 0-16.384 6.144-16.384 16.384s6.144 16.384 16.384 16.384h116.736c8.192 0 16.384-6.144 16.384-16.384s-8.192-16.384-16.384-16.384z m0 73.728h-116.736c-8.192 0-16.384 6.144-16.384 16.384 0 8.192 6.144 16.384 16.384 16.384h116.736c8.192 0 16.384-6.144 16.384-16.384 0-8.192-8.192-16.384-16.384-16.384z"  horiz-adv-x="1024" />

    
    <glyph glyph-name="xinggexuankao" unicode="&#59007;" d="M512 896c282.624 0 512-229.376 512-512S794.624-128 512-128 0 101.376 0 384 229.376 896 512 896zM346.112 416.768h190.464c8.192 0 14.336 6.144 14.336 14.336 0 8.192-6.144 14.336-14.336 14.336h-190.464c-18.432 0-32.768 14.336-32.768 32.768 0 18.432 14.336 32.768 32.768 32.768H579.584c34.816 0 63.488 28.672 63.488 63.488 0 34.816-28.672 63.488-63.488 63.488h-53.248c6.144 10.24 10.24 20.48 10.24 32.768 0 34.816-28.672 63.488-63.488 63.488h-32.768c-34.816 0-63.488-28.672-63.488-63.488 0-34.816 28.672-63.488 63.488-63.488h139.264c18.432 0 32.768-14.336 32.768-32.768 0-18.432-14.336-32.768-32.768-32.768H344.064c-34.816 0-63.488-28.672-63.488-63.488s30.72-61.44 65.536-61.44z m129.024 225.28h-32.768c-18.432 0-32.768 14.336-32.768 32.768 0 18.432 14.336 32.768 32.768 32.768h32.768c18.432 0 32.768-14.336 32.768-32.768 0-16.384-14.336-32.768-32.768-32.768zM698.368 447.488h-61.44c-8.192 0-16.384-6.144-16.384-16.384 0-8.192 6.144-16.384 16.384-16.384H696.32c18.432 0 32.768-14.336 32.768-32.768 0-18.432-14.336-32.768-32.768-32.768H323.584c-34.816 0-63.488-28.672-63.488-63.488 0-34.816 28.672-63.488 63.488-63.488h296.96c18.432 0 32.768-14.336 32.768-32.768 0-18.432-14.336-32.768-32.768-32.768H481.28c-34.816 0-61.44-28.672-61.44-63.488 0-34.816 28.672-63.488 63.488-63.488h32.768c34.816 0 63.488 28.672 63.488 63.488 0 12.288-4.096 24.576-10.24 32.768h53.248c34.816 0 63.488 28.672 63.488 63.488 0 34.816-28.672 63.488-63.488 63.488H323.584c-18.432 0-32.768 14.336-32.768 32.768s14.336 32.768 32.768 32.768h374.784c34.816 0 63.488 28.672 63.488 63.488 0 36.864-28.672 65.536-63.488 65.536z m-180.224-389.12h-32.768c-18.432 0-32.768 14.336-32.768 32.768 0 18.432 14.336 32.768 32.768 32.768h32.768c18.432 0 32.768-14.336 32.768-32.768 0-16.384-14.336-32.768-32.768-32.768z"  horiz-adv-x="1024" />

    
    <glyph glyph-name="shengyaguihua" unicode="&#59008;" d="M512 896c282.624 0 512-229.376 512-512S794.624-128 512-128 0 101.376 0 384 229.376 896 512 896zM690.176 164.864l34.816-34.816c6.144-6.144 6.144-16.384 0-20.48l-2.048-2.048c-6.144-6.144-16.384-6.144-20.48 0l-34.816 34.816-34.816-34.816c-6.144-6.144-16.384-6.144-20.48 0l-2.048 2.048c-6.144 6.144-6.144 16.384 0 20.48l34.816 34.816-34.816 34.816c-6.144 6.144-6.144 16.384 0 20.48l2.048 2.048c6.144 6.144 16.384 6.144 20.48 0l34.816-34.816 34.816 34.816c6.144 6.144 16.384 6.144 20.48 0l2.048-2.048c6.144-6.144 6.144-16.384 0-20.48l-34.816-34.816z m-225.28-16.384h-49.152v-49.152c0-8.192-6.144-14.336-14.336-14.336h-2.048c-8.192 0-14.336 6.144-14.336 14.336v49.152h-49.152c-8.192 0-14.336 6.144-14.336 14.336v2.048c0 8.192 6.144 14.336 14.336 14.336h49.152v49.152c0 8.192 6.144 14.336 14.336 14.336h2.048c8.192 0 14.336-6.144 14.336-14.336V179.2h49.152c8.192 0 14.336-6.144 14.336-14.336v-2.048c0-6.144-6.144-14.336-14.336-14.336zM741.376 390.144c-45.056-47.104-116.736-49.152-165.888-10.24v-22.528c0-8.192-6.144-16.384-16.384-16.384-8.192 0-16.384 6.144-16.384 16.384V709.632c0 8.192 6.144 16.384 16.384 16.384 8.192 0 16.384-6.144 16.384-16.384v-129.024c49.152 40.96 120.832 36.864 165.888-10.24 49.152-49.152 49.152-131.072 0-180.224zM475.136 340.992c-8.192 0-16.384 6.144-16.384 16.384v22.528c-49.152-40.96-120.832-36.864-165.888 10.24-49.152 49.152-49.152 131.072 0 180.224 49.152 49.152 126.976 49.152 176.128 0v-6.144c2.048 0 4.096 2.048 6.144 2.048 8.192 0 16.384-6.144 16.384-16.384v-192.512c0-8.192-8.192-16.384-16.384-16.384z"  horiz-adv-x="1024" />

    
    <glyph glyph-name="xuekeceping" unicode="&#59009;" d="M512 896c282.624 0 512-229.376 512-512S794.624-128 512-128 0 101.376 0 384 229.376 896 512 896zM681.984 117.76H342.016c-24.576 0-43.008 18.432-43.008 43.008V596.992c0 24.576 18.432 43.008 43.008 43.008h342.016c24.576 0 43.008-18.432 43.008-43.008V158.72c-2.048-22.528-20.48-40.96-45.056-40.96zM432.128 553.984h-32.768c-8.192 0-16.384-6.144-16.384-16.384s6.144-16.384 16.384-16.384h32.768c8.192 0 16.384 6.144 16.384 16.384s-8.192 16.384-16.384 16.384z m192.512 0h-129.024c-8.192 0-16.384-6.144-16.384-16.384s6.144-16.384 16.384-16.384h129.024c8.192 0 16.384 6.144 16.384 16.384s-8.192 16.384-16.384 16.384z m16.384-106.496c0 12.288-10.24 20.48-20.48 20.48H405.504c-12.288 0-20.48-10.24-20.48-20.48v-223.232c0-12.288 10.24-20.48 20.48-20.48h212.992c12.288 0 20.48 10.24 20.48 20.48V447.488z"  horiz-adv-x="1024" />

    
    <glyph glyph-name="daxuechaxun" unicode="&#59010;" d="M512 896c282.624 0 512-229.376 512-512S794.624-128 512-128 0 101.376 0 384 229.376 896 512 896zM288.768 416.768h458.752c24.576 0 43.008-18.432 43.008-43.008v-182.272H245.76v182.272c0 22.528 18.432 43.008 43.008 43.008zM800.768 214.016h-116.736V586.752c0 24.576-18.432 43.008-43.008 43.008h-245.76c-24.576 0-43.008-18.432-43.008-43.008V214.016h-116.736c-6.144 0-10.24-4.096-10.24-10.24s4.096-10.24 10.24-10.24h565.248c6.144 0 10.24 4.096 10.24 10.24s-4.096 10.24-10.24 10.24zM585.728 330.752H552.96c-6.144 0-10.24 4.096-10.24 10.24v20.48c0 6.144 4.096 10.24 10.24 10.24h32.768c6.144 0 10.24-4.096 10.24-10.24v-20.48c2.048-6.144-4.096-10.24-10.24-10.24z m0 169.984H552.96c-6.144 0-10.24 4.096-10.24 10.24v20.48c0 6.144 4.096 10.24 10.24 10.24h32.768c6.144 0 10.24-4.096 10.24-10.24v-20.48c2.048-4.096-4.096-10.24-10.24-10.24z m-30.72-43.008h32.768c6.144 0 10.24-4.096 10.24-10.24v-20.48c0-6.144-4.096-10.24-10.24-10.24h-32.768c-6.144 0-10.24 4.096-10.24 10.24v20.48c0 6.144 4.096 10.24 10.24 10.24z m-75.776-126.976h-32.768c-6.144 0-10.24 4.096-10.24 10.24v20.48c0 6.144 4.096 10.24 10.24 10.24h32.768c6.144 0 10.24-4.096 10.24-10.24v-20.48c2.048-6.144-4.096-10.24-10.24-10.24z m0 86.016h-32.768c-6.144 0-10.24 4.096-10.24 10.24v20.48c0 6.144 4.096 10.24 10.24 10.24h32.768c6.144 0 10.24-4.096 10.24-10.24v-20.48c2.048-6.144-4.096-10.24-10.24-10.24z m0 83.968h-32.768c-6.144 0-10.24 4.096-10.24 10.24v20.48c0 6.144 4.096 10.24 10.24 10.24h32.768c6.144 0 10.24-4.096 10.24-10.24v-20.48c2.048-4.096-4.096-10.24-10.24-10.24z"  horiz-adv-x="1024" />

    
    <glyph glyph-name="zhuanyechaxun" unicode="&#59011;" d="M512 896c282.624 0 512-229.376 512-512S794.624-128 512-128 0 101.376 0 384 229.376 896 512 896zM841.728 232.448c6.144-6.144 8.192-18.432 2.048-24.576-6.144-6.144-16.384-6.144-24.576 2.048L768 261.12s0 2.048-2.048 2.048c-14.336-10.24-32.768-16.384-53.248-16.384-10.24 0-22.528 2.048-32.768 6.144v-49.152c0-6.144-4.096-10.24-10.24-10.24H385.024c-6.144 0-10.24 4.096-10.24 10.24V576.512c0 6.144 4.096 10.24 10.24 10.24h288.768c6.144 0 10.24-4.096 10.24-10.24v-143.36c10.24 4.096 20.48 6.144 32.768 6.144 53.248 0 96.256-43.008 96.256-96.256 0-22.528-8.192-43.008-20.48-59.392l49.152-51.2z m-389.12 45.056h116.736c8.192 0 16.384 6.144 16.384 16.384 0 8.192-6.144 16.384-16.384 16.384h-116.736c-8.192 0-16.384-6.144-16.384-16.384 2.048-10.24 8.192-16.384 16.384-16.384z m0 96.256h116.736c8.192 0 16.384 6.144 16.384 16.384s-6.144 14.336-14.336 14.336h-116.736c-8.192 0-16.384-6.144-16.384-16.384s6.144-14.336 14.336-14.336z m149.504 126.976h-149.504c-8.192 0-16.384-6.144-16.384-16.384s6.144-16.384 16.384-16.384h149.504c8.192 0 16.384 6.144 16.384 16.384s-6.144 16.384-16.384 16.384z m112.64-96.256c-12.288 0-22.528-4.096-32.768-8.192v-110.592c10.24-6.144 20.48-8.192 32.768-8.192 34.816 0 63.488 28.672 63.488 63.488 0 34.816-28.672 63.488-63.488 63.488z m6.144 53.248c-8.192 0-16.384 6.144-16.384 16.384 0 2.048 0 4.096 2.048 6.144h-2.048v116.736c0 6.144-4.096 10.24-10.24 10.24H362.496c-6.144 0-10.24-4.096-10.24-10.24v-415.744c0-6.144 4.096-10.24 10.24-10.24h329.728c6.144 0 10.24 4.096 10.24 10.24v32.768h2.048c2.048 6.144 8.192 10.24 14.336 10.24 6.144 0 12.288-4.096 14.336-10.24h2.048v-32.768c0-24.576-18.432-43.008-43.008-43.008H362.496c-24.576 0-43.008 18.432-43.008 43.008V596.992c0 24.576 18.432 43.008 43.008 43.008h329.728c24.576 0 43.008-18.432 43.008-43.008v-116.736h-2.048c0-2.048 2.048-4.096 2.048-6.144 0-8.192-6.144-16.384-14.336-16.384zM714.752 404.48c34.816 0 63.488-28.672 63.488-63.488 0-34.816-28.672-63.488-63.488-63.488s-63.488 28.672-63.488 63.488c0 34.816 28.672 63.488 63.488 63.488z"  horiz-adv-x="1024" />

    
    <glyph glyph-name="daoshijiehuo" unicode="&#59012;" d="M512 896c282.624 0 512-229.376 512-512S794.624-128 512-128 0 101.376 0 384 229.376 896 512 896zM512 660.48c129.024 0 235.52-104.448 235.52-235.52 0-129.024-104.448-235.52-235.52-235.52-129.024 0-235.52 104.448-235.52 235.52S382.976 660.48 512 660.48zM681.984 41.984S552.96 89.088 552.96 105.472v14.336 18.432c0 14.336 129.024 63.488 129.024 63.488 12.288 0 20.48-10.24 20.48-20.48v-116.736c2.048-12.288-8.192-22.528-20.48-22.528zM512 107.52c-12.288 0-20.48 10.24-20.48 20.48s10.24 20.48 20.48 20.48c12.288 0 20.48-10.24 20.48-20.48s-8.192-20.48-20.48-20.48z m-169.984-65.536c-12.288 0-20.48 10.24-20.48 20.48V179.2c0 12.288 10.24 20.48 20.48 20.48 0 0 129.024-47.104 129.024-63.488v-32.768c-2.048-10.24-129.024-61.44-129.024-61.44z"  horiz-adv-x="1024" />

    
    <glyph glyph-name="zhiyuantianbao" unicode="&#59013;" d="M512 896c282.624 0 512-229.376 512-512S794.624-128 512-128 0 101.376 0 384 229.376 896 512 896zM694.272 117.76H342.016c-24.576 0-43.008 18.432-43.008 43.008V596.992c0 24.576 18.432 43.008 43.008 43.008h352.256c24.576 0 43.008-18.432 43.008-43.008V158.72c-2.048-22.528-20.48-40.96-43.008-40.96z m-294.912 83.968h43.008c8.192 0 16.384 6.144 16.384 16.384s-6.144 16.384-16.384 16.384h-43.008c-8.192 0-16.384-6.144-16.384-16.384s8.192-16.384 16.384-16.384zM634.88 363.52H399.36c-8.192 0-16.384-6.144-16.384-16.384 0-8.192 6.144-16.384 16.384-16.384H634.88c8.192 0 16.384 6.144 16.384 16.384 0 8.192-8.192 16.384-16.384 16.384z m0-65.536H399.36c-8.192 0-16.384-6.144-16.384-16.384s6.144-16.384 16.384-16.384H634.88c8.192 0 16.384 6.144 16.384 16.384s-8.192 16.384-16.384 16.384zM405.504 533.504h223.232c12.288 0 20.48-10.24 20.48-20.48v-86.016c0-12.288-10.24-20.48-20.48-20.48H405.504c-12.288 0-20.48 10.24-20.48 20.48v86.016c0 10.24 8.192 20.48 20.48 20.48z"  horiz-adv-x="1024" />

    
    <glyph glyph-name="baiketoutiao" unicode="&#59014;" d="M163.84 252.928h112.64l12.288 55.296h-81.92c-10.24 0-18.432 4.096-20.48 12.288l-2.048 16.384H102.4l10.24-45.056c4.096-26.624 22.528-38.912 51.2-38.912zM141.312 154.624h114.688l12.288 55.296H184.32c-14.336 0-24.576 4.096-28.672 14.336l-6.144 20.48h-81.92l12.288-47.104c8.192-28.672 28.672-43.008 61.44-43.008zM405.504 357.376h-67.584L286.72 123.904H36.864l-12.288-57.344h174.08l-57.344-47.104c-6.144-4.096-12.288-8.192-18.432-8.192H12.288L0-41.984h126.976c14.336 0 28.672 4.096 40.96 14.336l116.736 92.16 49.152-102.4c4.096-6.144 10.24-10.24 18.432-10.24h55.296l14.336 59.392h-24.576c-4.096 0-6.144 2.048-8.192 6.144l-20.48 51.2h61.44l12.288 57.344h-90.112l53.248 231.424zM546.816 52.224l-24.576-32.768c-4.096-6.144-10.24-10.24-18.432-10.24h-34.816l-10.24-47.104h59.392c18.432 0 32.768 8.192 43.008 22.528l49.152 67.584h-63.488zM733.184 152.576h-63.488l-6.144-28.672H491.52l-12.288-55.296h169.984l-8.192-34.816c-4.096-16.384-10.24-24.576-18.432-24.576H593.92l-12.288-51.2H634.88c16.384 0 30.72 4.096 40.96 14.336 12.288 10.24 22.528 24.576 24.576 40.96l12.288 55.296h169.984l12.288 55.296h-169.984l8.192 28.672zM806.912 17.408l-8.192 34.816h-65.536l18.432-67.584c6.144-14.336 14.336-22.528 26.624-22.528h75.776l10.24 47.104h-43.008c-8.192 0-14.336 2.048-14.336 8.192zM933.888 336.896H663.552l14.336 20.48h-67.584L573.44 306.176c-8.192-10.24-16.384-16.384-26.624-16.384h-6.144l-12.288-53.248h30.72c14.336 0 26.624 4.096 36.864 10.24l57.344-34.816-28.672-12.288c-10.24-4.096-20.48-6.144-34.816-6.144h-73.728l-12.288-55.296H593.92c18.432 0 34.816 4.096 49.152 10.24l63.488 28.672 51.2-30.72c10.24-6.144 22.528-10.24 38.912-10.24h98.304l12.288 55.296h-53.248c-18.432 0-36.864 4.096-49.152 10.24l-20.48 10.24 139.264 63.488 10.24 61.44z m-215.04-92.16l-36.864 16.384h-75.776l6.144 8.192 10.24 14.336h182.272l-86.016-38.912zM395.264 713.728l20.48 40.96h169.984l12.288 55.296H194.56l-12.288-53.248h157.696l-20.48-40.96H190.464L122.88 418.816h313.344c34.816 0 57.344 14.336 63.488 40.96l57.344 253.952h-161.792z m38.912-225.28c-2.048-10.24-8.192-14.336-20.48-14.336H204.8l16.384 67.584h227.328l-14.336-53.248z m24.576 108.544h-225.28l14.336 61.44h227.328l-16.384-61.44zM864.256 640v36.864h-63.488l2.048-73.728c0-20.48 10.24-30.72 30.72-30.72h53.248l12.288 51.2h-22.528c-8.192 2.048-12.288 6.144-12.288 16.384zM860.16 693.248h57.344l12.288 51.2H901.12c-8.192 0-12.288 4.096-12.288 14.336l-2.048 36.864h-63.488l4.096-73.728c2.048-18.432 12.288-28.672 32.768-28.672zM1024 814.08h-61.44l-61.44-266.24-135.168-16.384-12.288-53.248 135.168 16.384-18.432-75.776h63.488l18.432 83.968 32.768 4.096 12.288 53.248-32.768-4.096zM741.376 478.208l24.576 165.888h-45.056l-30.72-184.32c-4.096-24.576 4.096-38.912 22.528-38.912h30.72l10.24 45.056h-4.096c-6.144 2.048-8.192 6.144-8.192 12.288zM622.592 646.144l-47.104-163.84c-2.048-8.192-6.144-14.336-12.288-14.336h-2.048l-8.192-47.104h18.432c10.24 0 18.432 4.096 26.624 10.24s12.288 14.336 16.384 26.624l53.248 188.416h-45.056zM792.576 674.816l10.24 49.152H737.28l6.144 30.72h16.384c14.336 0 24.576 4.096 34.816 12.288 10.24 8.192 18.432 24.576 24.576 47.104h-51.2c-4.096-8.192-10.24-12.288-18.432-12.288h-100.352l-10.24-47.104h51.2l-6.144-30.72h-57.344l-10.24-49.152h57.344L614.4 416.768h53.248l59.392 258.048h65.536z"  horiz-adv-x="1024" />

    
    <glyph glyph-name="xueyeguihuaxuanzhong" unicode="&#59015;" d="M1024 699.392c0 55.296-79.872 53.248-79.872 0v-714.752c0-8.192-4.096-16.384-10.24-22.528s-14.336-10.24-22.528-10.24H184.32c-47.104 0-104.448 38.912-104.448 106.496 0 57.344 38.912 106.496 86.016 106.496h661.504c22.528 0 40.96 18.432 40.96 40.96V855.04c0 22.528-18.432 40.96-40.96 40.96H241.664C108.544 896 0 787.456 0 654.336V56.32c0-6.144 4.096-38.912 4.096-40.96 18.432-81.92 83.968-143.36 163.84-143.36h743.424c63.488 0 112.64 51.2 114.688 114.688L1024 699.392z m-196.608-600.064H264.192c-55.296 0-53.248-79.872 0-79.872h563.2c53.248-2.048 57.344 79.872 0 79.872z"  horiz-adv-x="1026" />

    
    <glyph glyph-name="xueyeguihuaweixuanzhong" unicode="&#59016;" d="M749.568 242.688c4.096 0 8.192 0 10.24 2.048-2.048-2.048-6.144-2.048-10.24-2.048zM1013.76 726.016l2.048-2.048c0 2.048 0 2.048-2.048 2.048zM999.424 738.304h-4.096 4.096zM1019.904 717.824l-2.048 2.048c2.048 0 2.048-2.048 2.048-2.048zM1005.568 734.208s-2.048 0-2.048 2.048c0 0 0-2.048 2.048-2.048zM991.232 740.352h-4.096 4.096zM1024 697.344v8.192c0 22.528-16.384 32.768-32.768 32.768s-32.768-10.24-32.768-32.768v-724.992c0-10.24-4.096-22.528-12.288-28.672-8.192-8.192-18.432-12.288-28.672-12.288h-737.28c-55.296 0-114.688 45.056-114.688 116.736 0 63.488 43.008 116.736 96.256 116.736h690.176c8.192 0 14.336 6.144 14.336 14.336v675.84c0 18.432-14.336 32.768-32.768 32.768h-614.4C98.304 896 0 797.696 0 676.864v-624.64c0-4.096 2.048-16.384 4.096-36.864v-4.096c16.384-81.92 81.92-139.264 157.696-139.264h755.712c59.392 0 106.496 49.152 106.496 106.496V697.344zM69.632 209.92V652.288h2.048c10.24 88.064 77.824 157.696 165.888 169.984 4.096 2.048 10.24 2.048 14.336 2.048h520.192c10.24 0 18.432-8.192 18.432-18.432v-563.2c0-6.144-6.144-12.288-12.288-12.288H202.752 180.224c-57.344-2.048-108.544-36.864-108.544-36.864v16.384zM749.568 809.984c4.096 0 8.192 0 10.24-2.048-2.048 2.048-6.144 2.048-10.24 2.048zM1024 709.632V711.68c-2.048 0-2.048-2.048 0-2.048zM827.392 91.136H264.192c-22.528 0-32.768-16.384-32.768-30.72 0-16.384 10.24-32.768 32.768-32.768h563.2c20.48 0 32.768 16.384 32.768 32.768 0 8.192-2.048 16.384-8.192 20.48-4.096 6.144-12.288 10.24-24.576 10.24zM956.416 730.112c-2.048 0-2.048-2.048-2.048-4.096 0 2.048 0 2.048 2.048 4.096zM948.224 719.872c0 2.048 2.048 2.048 2.048 4.096 0-2.048-2.048-2.048-2.048-4.096zM944.128 699.392v10.24-10.24zM944.128 711.68c0 2.048 0 4.096 2.048 6.144 0-2.048 0-4.096-2.048-6.144zM1011.712 730.112l-2.048 2.048s0-2.048 2.048-2.048zM983.04 740.352h-4.096 4.096zM962.56 734.208c-2.048 0-2.048-2.048-4.096-2.048 2.048 0 2.048 2.048 4.096 2.048zM976.896 738.304c-2.048 0-2.048 0-4.096-2.048 0 2.048 2.048 2.048 4.096 2.048zM968.704 738.304c-2.048 0-2.048-2.048-4.096-2.048 2.048 0 4.096 0 4.096 2.048z"  horiz-adv-x="1024" />

    
    <glyph glyph-name="zhiyeguihuaxuanzhong" unicode="&#59017;" d="M958.464-66.56H65.536C28.672-66.56 0-35.84 0-1.024V484.352l512-137.216 512 137.216v-485.376c0-34.816-28.672-65.536-65.536-65.536zM0 551.936v40.96c0 34.816 28.672 65.536 65.536 65.536h237.568c0 4.096-2.048 10.24-2.048 16.384v61.44c0 53.248 45.056 96.256 98.304 96.256h225.28c55.296 0 98.304-45.056 98.304-98.304v-61.44c0-6.144 0-10.24-2.048-16.384h237.568c36.864 0 65.536-28.672 65.536-63.488v-40.96l-512-137.216-512 137.216z m655.36 122.88v61.44c0 18.432-14.336 32.768-32.768 32.768h-225.28c-18.432 0-32.768-14.336-32.768-32.768v-61.44c0-6.144 2.048-10.24 6.144-16.384h278.528c4.096 4.096 6.144 10.24 6.144 16.384z"  horiz-adv-x="1024" />

    
    <glyph glyph-name="zhiyeguihuaweixuanzhong" unicode="&#59018;" d="M952.32 658.432H722.944c0 4.096 2.048 10.24 2.048 14.336v61.44c0 53.248-43.008 98.304-98.304 98.304h-225.28c-53.248 0-98.304-45.056-98.304-96.256v-61.44c0-6.144 0-10.24 2.048-14.336H75.776c-40.96 0-75.776-32.768-75.776-75.776v-573.44c0-40.96 32.768-75.776 75.776-75.776h874.496c40.96 0 75.776 32.768 75.776 75.776v573.44c2.048 40.96-30.72 73.728-73.728 73.728zM370.688 736.256c0 18.432 14.336 32.768 32.768 32.768h225.28c18.432 0 32.768-14.336 32.768-32.768v-61.44c0-4.096-2.048-10.24-4.096-14.336H376.832c-2.048 4.096-6.144 8.192-6.144 14.336v61.44z m608.256-702.464c0-26.624-22.528-49.152-49.152-49.152H104.448c-26.624 0-49.152 22.528-49.152 49.152V465.92L516.096 330.752 978.944 465.92v-432.128z m0 509.952L516.096 408.576 53.248 543.744v14.336c0 26.624 22.528 49.152 49.152 49.152H925.696c26.624 0 49.152-22.528 49.152-49.152v-14.336z"  horiz-adv-x="1028" />

    
    <glyph glyph-name="daoshituijianIcon" unicode="&#59019;" d="M442.399835-37.929198H593.882547v169.906284h-151.482712v-169.906284z m-145.341521 431.930435c0-47.082464-32.753019-83.929611-73.694292-83.929611s-73.694292 38.89421-73.694292 83.929611c0 47.082464 32.753019 83.929611 73.694292 83.92961s73.694292-36.847146 73.694292-83.92961z m587.507274 0c0-47.082464-32.753019-83.929611-73.694292-83.929611S737.177004 346.918772 737.177004 394.001237s32.753019 83.929611 73.694292 83.92961 73.694292-36.847146 73.694292-83.92961zM810.871296 553.672203c0 124.870884-90.070802 214.941686-292.730105 214.941686S225.411086 678.543087 225.411086 553.672203s-20.470637-450.354008 292.730105-450.354008 292.730105 327.530188 292.730105 450.354008zM270.446487 541.389821c-2.047064 51.176592 28.658891 85.976674 90.070801 114.635566 0 0 176.047476-51.176592 298.871296-51.176592 161.71803 0 118.729693-190.376922 147.388585-192.423985 28.658891-2.047064 61.41191 216.988749 26.611828 341.859633 0 0-96.211993 118.729693-286.588915 139.20033S200.846322 807.508099 192.658067 645.790068c-6.141191-143.294457 4.094127-233.365259 28.658891-233.365258 28.658891 2.047064 51.176592 79.835483 49.129529 128.965011zM512 74.659304V-128h388.942098c0 81.882547-204.706367 202.659304-388.942098 202.659304z m0 0V-128H123.057902c0 81.882547 204.706367 202.659304 388.942098 202.659304z"  horiz-adv-x="1024" />

    
    <glyph glyph-name="daoshituijianwenzi" unicode="&#59020;" d="M399.36 605.184h14.336c4.096 0 10.24 6.144 20.48 16.384s18.432 16.384 22.528 16.384c2.048 0 4.096 0 6.144-2.048 8.192-6.144 14.336-12.288 20.48-18.432 8.192-10.24 14.336-16.384 14.336-20.48 0-4.096-4.096-6.144-10.24-6.144h-88.064V486.4c0-6.144-6.144-14.336-16.384-20.48s-22.528-10.24-36.864-10.24h-6.144c-4.096 0-6.144 4.096-6.144 8.192 0 6.144-2.048 10.24-4.096 12.288-4.096 4.096-10.24 8.192-22.528 12.288-12.288 4.096-18.432 8.192-20.48 10.24v2.048h4.096c2.048 0 10.24 0 24.576-2.048 12.288-2.048 20.48-2.048 24.576-2.048 4.096 0 8.192 2.048 8.192 6.144v90.112H94.208l-12.288 14.336h266.24v34.816h10.24c12.288 0 24.576 0 34.816-2.048s16.384-2.048 16.384-4.096-2.048-6.144-6.144-8.192c-2.048 0-4.096-2.048-6.144-4.096v-18.432z m-36.864 141.312H182.272V732.16c0-12.288 2.048-20.48 8.192-26.624 4.096-6.144 14.336-10.24 26.624-10.24H428.032l12.288 6.144c8.192 16.384 14.336 30.72 18.432 38.912 2.048 4.096 6.144 8.192 10.24 14.336 0 0 2.048-4.096 2.048-8.192s0-10.24-2.048-18.432c0-10.24-2.048-16.384-2.048-20.48v-8.192l6.144-6.144c4.096-4.096 6.144-8.192 6.144-14.336v-8.192c-2.048-8.192-8.192-16.384-20.48-20.48-4.096-2.048-10.24-2.048-16.384-4.096h-245.76c-22.528 0-38.912 4.096-49.152 14.336-10.24 10.24-14.336 24.576-14.336 45.056V865.28l45.056-12.288h178.176c2.048 2.048 6.144 6.144 12.288 10.24 8.192 4.096 12.288 8.192 16.384 8.192 4.096 0 12.288-4.096 22.528-10.24 10.24-6.144 16.384-12.288 16.384-14.336 0-2.048-2.048-4.096-6.144-6.144-2.048-4.096-4.096-6.144-4.096-6.144v-92.16c0-6.144-2.048-10.24-8.192-14.336-4.096-2.048-10.24-4.096-18.432-6.144-6.144 0-10.24 2.048-14.336 4.096-4.096 2.048-8.192 6.144-10.24 12.288v8.192z m-120.832-202.752c4.096-8.192 6.144-18.432 6.144-26.624s-2.048-12.288-6.144-16.384c-4.096-4.096-10.24-6.144-16.384-6.144-8.192 0-12.288 2.048-18.432 8.192-4.096 4.096-8.192 12.288-8.192 20.48 0 10.24-4.096 20.48-12.288 30.72-4.096 6.144-10.24 12.288-14.336 18.432v2.048c2.048 0 4.096 2.048 6.144 2.048 10.24 0 20.48-2.048 32.768-8.192 18.432-8.192 26.624-14.336 30.72-24.576z m120.832 294.912H182.272v-77.824h180.224V838.656zM608.256 797.696c2.048 0 2.048-2.048 2.048-4.096s-2.048-4.096-8.192-8.192c-6.144-2.048-8.192-4.096-8.192-4.096v-184.32c0-6.144-4.096-12.288-10.24-16.384-6.144-4.096-14.336-6.144-20.48-6.144-4.096 0-10.24 2.048-12.288 4.096-4.096 2.048-6.144 6.144-6.144 10.24V807.936s4.096 2.048 10.24 2.048c10.24 0 18.432 0 28.672-2.048 10.24-4.096 18.432-6.144 24.576-10.24z m94.208 61.44c0-2.048-2.048-6.144-8.192-8.192s-8.192-4.096-8.192-4.096v-110.592c0-32.768-2.048-59.392-4.096-81.92-4.096-34.816-10.24-65.536-18.432-88.064s-22.528-45.056-40.96-63.488c-14.336-14.336-28.672-26.624-45.056-34.816-14.336-8.192-22.528-10.24-26.624-8.192l16.384 16.384c16.384 16.384 30.72 36.864 40.96 61.44 16.384 36.864 22.528 81.92 22.528 137.216v12.288 8.192 6.144 6.144 16.384 16.384 129.024s2.048 0 2.048 2.048h8.192c12.288 0 24.576-2.048 36.864-4.096 18.432-2.048 24.576-4.096 24.576-8.192z m98.304-28.672h-88.064l-12.288 14.336h186.368c2.048 0 6.144 4.096 14.336 12.288 8.192 8.192 14.336 12.288 18.432 12.288 2.048 0 4.096 0 6.144-2.048 6.144-4.096 12.288-10.24 18.432-16.384 8.192-8.192 10.24-12.288 10.24-16.384 0-4.096-4.096-6.144-12.288-6.144h-81.92c0-2.048 0-6.144-2.048-8.192-2.048-2.048-4.096-4.096-4.096-6.144v-57.344H880.64c8.192 6.144 14.336 10.24 18.432 12.288 6.144 4.096 10.24 4.096 12.288 4.096 6.144 0 12.288-4.096 22.528-14.336 10.24-10.24 16.384-16.384 16.384-22.528 0-2.048-2.048-4.096-8.192-8.192-4.096-2.048-4.096-4.096-4.096-4.096v-165.888c0-12.288-6.144-22.528-16.384-30.72s-20.48-12.288-30.72-12.288-14.336 4.096-14.336 12.288v4.096c2.048 8.192-2.048 14.336-10.24 20.48-2.048 2.048-6.144 4.096-14.336 8.192v-88.064c0-6.144-4.096-12.288-10.24-16.384-6.144-4.096-12.288-6.144-18.432-6.144-6.144 0-10.24 2.048-14.336 4.096-4.096 2.048-6.144 6.144-8.192 10.24V744.448h-36.864v-204.8c0-6.144-4.096-10.24-10.24-14.336s-12.288-6.144-20.48-6.144c-10.24 0-16.384 4.096-18.432 14.336V773.12c4.096 0 12.288-2.048 22.528-4.096s18.432-6.144 26.624-10.24h36.864V830.464z m51.2-86.016v-172.032c4.096-2.048 10.24-2.048 16.384-4.096 6.144-2.048 10.24-2.048 12.288-2.048h4.096c2.048 2.048 4.096 4.096 4.096 8.192V744.448h-36.864zM309.248 234.496h110.592c2.048 0 8.192 4.096 20.48 14.336 6.144 4.096 10.24 8.192 16.384 8.192 4.096 0 8.192-2.048 14.336-6.144 6.144-6.144 12.288-10.24 16.384-14.336 4.096-4.096 6.144-8.192 6.144-10.24 0-4.096-6.144-6.144-18.432-6.144h-53.248l-12.288-10.24v-63.488c2.048 0 8.192 4.096 14.336 12.288 6.144 8.192 12.288 12.288 18.432 12.288 4.096 0 8.192-2.048 12.288-6.144l14.336-14.336c4.096-4.096 4.096-8.192 4.096-10.24 0-4.096-6.144-8.192-16.384-8.192H409.6v-71.68c2.048 0 8.192 6.144 20.48 16.384 4.096 4.096 10.24 8.192 14.336 8.192 4.096 0 8.192-2.048 12.288-6.144l14.336-14.336c4.096-4.096 4.096-8.192 4.096-10.24 0-4.096-6.144-8.192-16.384-8.192H409.6v-73.728h14.336c4.096 0 10.24 4.096 18.432 10.24s14.336 10.24 20.48 10.24c4.096 0 10.24-2.048 14.336-6.144 6.144-6.144 12.288-10.24 16.384-14.336 4.096-4.096 6.144-8.192 6.144-10.24 0-4.096-6.144-6.144-18.432-6.144H307.2v-18.432c0-8.192-4.096-14.336-10.24-18.432-6.144-4.096-12.288-8.192-20.48-8.192-6.144 0-10.24 2.048-12.288 4.096s-6.144 6.144-6.144 12.288V164.864c-24.576-28.672-40.96-43.008-51.2-45.056v6.144c2.048 4.096 4.096 10.24 8.192 18.432-6.144-6.144-10.24-10.24-16.384-14.336-2.048-2.048-8.192-8.192-18.432-16.384v-135.168c0-16.384-2.048-30.72-8.192-40.96-8.192-14.336-20.48-22.528-36.864-22.528-6.144 0-10.24 0-14.336 2.048s-4.096 4.096-4.096 6.144v6.144 6.144c0 2.048 0 4.096-2.048 6.144-2.048 4.096-8.192 8.192-18.432 14.336-12.288 12.288-20.48 18.432-22.528 18.432v2.048h4.096s10.24-2.048 30.72-4.096c8.192-2.048 14.336-2.048 16.384 0 2.048 0 4.096 2.048 6.144 6.144 2.048 2.048 2.048 6.144 2.048 10.24V76.8l-28.672-22.528s-2.048-4.096-2.048-8.192 0-6.144-4.096-8.192-8.192 8.192-16.384 30.72c-2.048 10.24-6.144 22.528-8.192 32.768 10.24 4.096 22.528 8.192 34.816 14.336 10.24 4.096 16.384 8.192 24.576 10.24v86.016H88.064l-12.288 14.336h59.392V343.04c12.288 0 22.528-2.048 30.72-2.048 20.48-2.048 30.72-4.096 30.72-8.192s-6.144-6.144-12.288-8.192c0 0-2.048-2.048-4.096-2.048v-94.208c2.048 0 6.144 4.096 12.288 12.288 6.144 6.144 10.24 10.24 16.384 10.24 4.096 0 8.192-2.048 12.288-6.144 4.096-4.096 8.192-8.192 12.288-14.336 4.096-4.096 6.144-8.192 6.144-10.24 0-4.096-6.144-8.192-16.384-8.192H180.224v-63.488c10.24 4.096 20.48 10.24 30.72 16.384l20.48 10.24c14.336 26.624 26.624 57.344 36.864 92.16 6.144 22.528 12.288 45.056 14.336 69.632 12.288-2.048 24.576-6.144 34.816-8.192 22.528-8.192 34.816-14.336 34.816-18.432 0-4.096-2.048-6.144-6.144-6.144s-4.096-2.048-6.144-2.048c-6.144-12.288-12.288-24.576-16.384-34.816-4.096-12.288-10.24-22.528-14.336-32.768z m49.152-14.336h-40.96c0-2.048-2.048-4.096-6.144-6.144-2.048-2.048-4.096-4.096-4.096-6.144v-61.44h51.2V220.16zM307.2 130.048v-71.68h51.2v71.68H307.2z m51.2-159.744v73.728H307.2v-73.728h51.2z m67.584 307.2v-8.192c0-8.192-2.048-14.336-8.192-20.48-6.144-6.144-10.24-8.192-16.384-8.192-6.144 0-10.24 2.048-14.336 6.144-4.096 4.096-6.144 12.288-6.144 20.48v8.192c0 4.096 0 10.24-4.096 18.432-10.24 18.432-14.336 28.672-14.336 28.672 0 2.048 2.048 2.048 4.096 2.048 8.192 0 20.48-4.096 32.768-12.288 14.336-8.192 24.576-20.48 26.624-34.816zM780.288 287.744v49.152s4.096 2.048 10.24 2.048c10.24 0 22.528 0 34.816-2.048 12.288-2.048 18.432-4.096 20.48-6.144 0-2.048 0-4.096-4.096-4.096-8.192-4.096-14.336-8.192-14.336-8.192v-28.672h30.72c4.096 0 10.24 6.144 20.48 16.384s18.432 16.384 22.528 16.384c2.048 0 4.096 0 6.144-2.048 8.192-6.144 14.336-12.288 20.48-18.432 8.192-10.24 14.336-16.384 14.336-20.48 0-4.096-4.096-6.144-10.24-6.144h-102.4v-36.864c0-4.096-2.048-6.144-8.192-10.24-6.144-4.096-12.288-4.096-18.432-4.096-6.144 0-12.288 2.048-14.336 4.096-4.096 2.048-6.144 4.096-6.144 6.144v40.96H696.32v-36.864c0-2.048-2.048-4.096-4.096-6.144-2.048-2.048-6.144-4.096-10.24-6.144 10.24-2.048 20.48-6.144 28.672-10.24 8.192-4.096 14.336-8.192 14.336-10.24 0-4.096-2.048-6.144-6.144-8.192s-8.192-4.096-10.24-8.192l-2.048-4.096h159.744c4.096 0 10.24 6.144 20.48 16.384s18.432 16.384 22.528 16.384c2.048 0 4.096 0 6.144-2.048 8.192-6.144 14.336-12.288 20.48-18.432 8.192-10.24 14.336-16.384 14.336-20.48 0-4.096-4.096-6.144-10.24-6.144H696.32c-4.096-8.192-8.192-16.384-14.336-24.576-6.144-12.288-12.288-20.48-18.432-28.672 2.048 0 4.096-2.048 4.096-2.048 2.048-2.048 0-6.144-6.144-10.24s-6.144-8.192-6.144-8.192v-165.888c0-4.096-2.048-8.192-8.192-12.288-6.144-4.096-12.288-6.144-18.432-6.144-2.048 0-6.144 0-10.24 2.048-6.144 2.048-8.192 6.144-8.192 10.24v133.12c-14.336-10.24-30.72-20.48-49.152-26.624-14.336-6.144-22.528-8.192-26.624-8.192 10.24 6.144 22.528 20.48 40.96 38.912 20.48 20.48 36.864 45.056 51.2 73.728l14.336 30.72h-94.208l-12.288 14.336h112.64c2.048 4.096 4.096 12.288 6.144 18.432 0 2.048 2.048 8.192 6.144 20.48-4.096 0-8.192 2.048-10.24 4.096-2.048 2.048-4.096 4.096-4.096 6.144v40.96h-104.448l-12.288 14.336h116.736v49.152s4.096 2.048 10.24 2.048c10.24 0 22.528 0 34.816-2.048 12.288-2.048 18.432-4.096 20.48-6.144 0-2.048 0-4.096-4.096-4.096-8.192-4.096-14.336-8.192-14.336-8.192v-28.672h88.064z m73.728-151.552c2.048 2.048 6.144 4.096 10.24 6.144 10.24 6.144 18.432 8.192 24.576 8.192 8.192-2.048 14.336-8.192 22.528-18.432s12.288-18.432 10.24-22.528c-2.048-2.048-4.096-4.096-10.24-4.096H901.12c0-2.048-4.096-4.096-12.288-10.24-16.384-12.288-32.768-22.528-47.104-30.72v-10.24h34.816c2.048 0 6.144 4.096 14.336 12.288 8.192 8.192 14.336 12.288 18.432 12.288 2.048 0 4.096 0 6.144-2.048 6.144-4.096 12.288-10.24 18.432-16.384 8.192-8.192 10.24-12.288 10.24-16.384 0-4.096-4.096-6.144-12.288-6.144H839.68v-79.872c0-14.336-8.192-24.576-24.576-32.768-12.288-6.144-22.528-8.192-30.72-8.192-6.144 0-10.24 2.048-10.24 6.144V-66.56v6.144c-2.048 4.096-6.144 8.192-14.336 12.288l-24.576 12.288c0 2.048 2.048 2.048 4.096 2.048s8.192 0 16.384-2.048 14.336-2.048 16.384-2.048h6.144c4.096 2.048 8.192 4.096 8.192 6.144s2.048 2.048 2.048 4.096V35.84H696.32l-12.288 14.336h108.544v28.672s2.048 0 2.048 2.048h22.528c6.144 0 12.288-2.048 16.384-2.048 6.144 8.192 12.288 16.384 16.384 22.528 4.096 8.192 8.192 14.336 8.192 18.432h-126.976l-12.288 14.336h135.168z"  horiz-adv-x="1024" />

    
    <glyph glyph-name="shengyaguihuaICON" unicode="&#59021;" d="M539.687117 797.696L660.519117 547.84l272.384-40.96c24.576-4.096 32.768-32.768 16.384-49.152l-196.608-194.56L799.783117-11.264c4.096-24.576-20.48-40.96-40.96-30.72l-245.76 129.024-243.712-129.024c-20.48-10.24-45.056 6.144-40.96 30.72l47.104 274.432-196.608 194.56c-16.384 16.384-8.192 47.104 16.384 49.152l272.384 40.96 120.832 249.856c8.192 22.528 38.912 22.528 51.2 0zM513.063117 814.08c10.24 0 20.48-6.144 26.624-16.384L660.519117 547.84l272.384-40.96c24.576-4.096 32.768-32.768 16.384-49.152l-196.608-194.56L799.783117-11.264c4.096-18.432-12.288-34.816-28.672-34.816-4.096 0-8.192 2.048-14.336 4.096L513.063117 87.04l-243.712-129.024c-4.096-4.096-8.192-4.096-14.336-4.096-16.384 0-30.72 14.336-28.672 34.816l47.104 274.432-196.608 194.56c-16.384 16.384-8.192 47.104 16.384 49.152l272.384 40.96 120.832 249.856c6.144 12.288 16.384 16.384 26.624 16.384m0 67.584c-36.864 0-69.632-20.48-86.016-53.248L320.551117 609.28 82.983117 574.464C46.119117 568.32 17.447117 543.744 5.159117 508.928c-12.288-34.816-2.048-73.728 24.576-98.304L201.767117 240.64l-40.96-241.664c-4.096-28.672 2.048-57.344 20.48-77.824a94.208 94.208 0 0 1 73.728-34.816c16.384 0 30.72 4.096 45.056 12.288L513.063117 11.264l212.992-112.64c14.336-8.192 28.672-12.288 45.056-12.288 28.672 0 55.296 12.288 73.728 34.816 18.432 22.528 26.624 51.2 20.48 77.824l-40.96 241.664 172.032 169.984c26.624 26.624 34.816 63.488 24.576 98.304-12.288 34.816-40.96 59.392-77.824 65.536L705.575117 609.28 599.079117 828.416C582.695117 861.184 549.927117 881.664 513.063117 881.664z"  horiz-adv-x="1025" />

    
    <glyph glyph-name="weibiaoti--" unicode="&#59022;" d="M0 384C0 666.77525 229.22475 896 512 896S1024 666.77525 1024 384 794.77525-128 512-128 0 101.22474999999997 0 384zM512 849.46012c257.062834 0 465.46012-208.397285 465.46012-465.46012S769.062834-81.46011999999996 512-81.46011999999996 46.53988 126.93716600000005 46.53988 384 254.937166 849.46012 512 849.46012zM504.662355 128c15.329341 0 143.993613 62.809421 143.993613 77.607345 0 14.818363-100.172136 314.374132-100.172136 314.374132l77.566467 88.644471s18.109062 19.723752-18.109061 19.723753H402.895968c-36.177246 0-24.097725-19.723752-24.097724-19.723753l82.042634-88.685349s-100.110818-297.838882-100.110818-314.374132 128.766467-77.566467 143.932295-77.566467z m138.740759 181.908184l27.408862 34.378602c5.150659 7.051497 5.436806 16.494371 0.838004 23.852456l-101.561996 146.487185 73.31513-204.718243z"  horiz-adv-x="1026" />

    
    <glyph glyph-name="xinggexuankao1" unicode="&#59023;" d="M0 384C0 666.76736 229.23264 896 512.02048 896s512.02048-229.23264 512.02048-512-229.25312-512.02048-512.02048-512.02048S0 101.21216000000004 0 384zM46.55104 384c0 257.06496 208.40448 465.46944 465.46944 465.46944 257.06496 0 465.46944-208.40448 465.46944-465.46944 0-257.06496-208.40448-465.46944-465.46944-465.46944C254.93504-81.46943999999996 46.55104 126.91456000000005 46.55104 384zM742.4 301.50656000000004a61.31712 61.31712 0 0 0-42.61888 16.81408 57.56928 57.56928 0 0 0-17.98144 42.02496v110.7968a15.7696 15.7696 0 0 1-16.1792 16.11776 15.7696 15.7696 0 0 1-16.15872-16.11776v-236.25728a60.6208 60.6208 0 0 0-60.6208-60.45696 60.6208 60.6208 0 0 0-60.6208 60.45696v296.5504c0 9.19552-6.94272 16.13824-16.15872 16.13824s-16.15872-6.94272-16.15872-16.13824v-47.24736c0-14.37696-11.71456-22.97856-23.04-22.97856-14.41792 0-23.04 11.69408-23.04 22.97856v48.88576c0 16.1792 6.43072 31.35488 18.10432 42.74176a62.79168 62.79168 0 0 0 44.1344 17.7152 60.6208 60.6208 0 0 0 60.6208-60.45696v-298.1888a15.7696 15.7696 0 0 1 16.15872-16.11776c9.216 0 16.15872 6.94272 16.15872 16.11776V472.76032a60.6208 60.6208 0 0 0 60.6208 60.45696 60.6208 60.6208 0 0 0 60.6208-60.45696v-26.624c5.20192 1.536 10.73152 2.3552 16.1792 2.3552a60.6208 60.6208 0 0 0 60.6208-60.45696v-26.07104a60.6208 60.6208 0 0 0-60.64128-60.45696z m17.79712 88.14592c0 9.23648-8.54016 16.11776-16.15872 16.11776a15.79008 15.79008 0 0 1-16.15872-16.11776v-26.07104a15.7696 15.7696 0 0 1 16.15872-16.11776c9.216 0 16.15872 6.94272 16.15872 16.11776v26.07104z m-308.75648 14.66368c0 11.9808 9.40032 21.34016 21.4016 21.34016s21.4016-9.37984 21.4016-21.34016v-151.53152c0-34.24256-26.46016-62.09536-58.9824-62.09536a60.6208 60.6208 0 0 0-60.6208 60.45696v187.392a15.7696 15.7696 0 0 1-16.15872 16.11776 15.79008 15.79008 0 0 1-16.15872-16.11776v-110.7968a60.6208 60.6208 0 0 0-60.6208-60.45696 60.6208 60.6208 0 0 0-60.6208 60.45696v26.07104a60.6208 60.6208 0 0 0 60.6208 60.45696c5.5296 0 10.81344-0.79872 16.15872-2.51904v26.80832c0 33.34144 27.19744 60.45696 60.6208 60.45696s60.6208-27.11552 60.6208-60.45696v-185.7536c0-9.19552 6.94272-16.13824 16.15872-16.13824s16.1792 6.94272 16.1792 16.13824v151.51104z m-156.83584-48.88576c0 9.23648-8.54016 16.11776-16.15872 16.11776a15.79008 15.79008 0 0 1-16.15872-16.11776v-26.07104a15.7696 15.7696 0 0 1 16.15872-16.11776c9.216 0 16.15872 6.94272 16.15872 16.11776v26.07104z"  horiz-adv-x="1024" />

    
    <glyph glyph-name="shengyaguihua1" unicode="&#59024;" d="M512 896c282.76736 0 512-229.23264 512-512S794.76736-128 512-128 0 101.23264 0 384 229.23264 896 512 896zM681.18528 615.71072a31.66208 31.66208 0 0 0 44.8512 0l44.42112-44.83072a31.66208 31.66208 0 0 0 0-44.81024l-44.83072-44.83072-89.27232 89.64096 44.83072 44.83072z m-335.7696-141.94688l-44.83072 44.83072 33.56672 33.66912a15.81056 15.81056 0 0 1-6.84032 27.05408 15.91296 15.91296 0 0 1-15.58528-4.64896l-33.56672-33.66912a31.72352 31.72352 0 0 0 0 44.83072l44.83072 44.83072a31.72352 31.72352 0 0 0 44.83072 0l119.25504-119.23456-89.68192-89.66144-29.696 29.57312 34.2016 33.66912a15.85152 15.85152 0 0 1-22.9376 21.89312l-33.54624-33.13664z m-23.01952-216.65792l89.78432-89.66144-110.75584-23.83872 20.97152 113.50016z m112.08704-67.44064l-89.68192 89.86624 269.12768 268.96384 89.68192-89.64096-269.12768-269.18912z m336.896-7.4752l-44.83072-44.83072a31.744 31.744 0 0 0-44.83072 0l33.66912 33.66912a15.872 15.872 0 0 1-22.4256 22.40512l-33.66912-33.46432-21.9136 22.40512 33.66912 33.66912a16.1792 16.1792 0 1 1-23.4496 22.30272l-33.6896-33.66912-37.66272 37.66272 89.68192 89.66144 105.43104-104.79616a31.66208 31.66208 0 0 0 0-44.81024v-0.2048z m0 0"  horiz-adv-x="1024" />

    
    <glyph glyph-name="xuekeceping1" unicode="&#59025;" d="M512 896c282.76736 0 512-229.23264 512-512S794.76736-128 512-128 0 101.23264 0 384 229.23264 896 512 896zM539.09504 639.91808c-107.60192 0-204.75904-89.68192-212.992-203.30496l-54.62016-93.26592c-8.4992-14.848 5.48864-17.6128 22.77376-17.6128h34.85696v-110.32576c0-31.6416 22.50752-48.70144 53.80096-41.53344l54.8864 8.54016v-21.17632c0-19.80416 1.10592-45.93664 21.13536-45.93664h124.60032c10.42432 0 13.16864 1.37216 16.46592 10.99776 3.01056 8.8064 2.47808 25.31328 2.47808 34.93888v61.07136c6.0416 2.47808 28.2624 13.76256 34.03776 16.50688 69.44768 35.75808 113.62304 105.3696 113.62304 187.904 0.02048 117.73952-91.93472 213.1968-211.0464 213.1968z m94.96576-207.1552l-135.04512-142.2336c-6.8608-7.43424-19.21024-1.37216-17.83808 8.8064l14.27456 97.3824h-61.7472a10.4448 10.4448 0 0 0-7.68 17.6128l135.04512 142.2336c6.8608 7.43424 19.21024 1.37216 17.83808-8.8064l-14.27456-97.3824h61.7472c9.05216 0 13.98784-11.01824 7.68-17.6128z"  horiz-adv-x="1024" />

    
    <glyph glyph-name="daxuechaxun1" unicode="&#59026;" d="M512 896c282.76736 0 512-229.23264 512-512S794.76736-128 512-128 0 101.23264 0 384 229.23264 896 512 896zM753.3568 451.072l-223.66208-62.68928c-6.88128-3.4816-17.2032-3.4816-24.08448-3.4816-6.88128 0-17.2032 0-24.08448 3.4816l-220.22144 62.68928c-20.64384 6.9632-30.96576 24.39168-30.96576 41.79968 0 17.408 10.32192 34.83648 27.52512 41.79968l223.66208 62.68928c13.76256 3.4816 34.4064 6.9632 48.16896 0l220.22144-62.68928c20.64384-6.9632 30.96576-24.39168 30.96576-41.79968 0-17.408-10.32192-34.816-27.52512-41.79968z m-416.37888-45.28128l165.1712-48.76288c6.88128-3.4816 13.76256-3.4816 20.64384 0l147.968 48.76288c6.88128 0 10.32192 0 13.76256-3.4816 3.44064-3.4816 6.88128-6.9632 6.88128-13.9264v-132.36224c3.44064-41.79968-30.96576-76.63616-72.25344-76.63616H392.04864c-41.28768 0-75.69408 34.83648-75.69408 76.63616v132.36224c0 6.9632 3.44064 10.4448 6.88128 13.9264 3.42016 3.4816 10.32192 3.4816 13.74208 3.4816z m402.6368 34.83648c14.4384 0 24.064-6.9632 24.064-17.408V214.2208c0-10.4448-9.6256-17.408-24.064-17.408-14.4384 0-24.064 6.9632-24.064 17.408V423.2192c0 10.4448 9.6256 17.408 24.064 17.408z"  horiz-adv-x="1024" />

    
    <glyph glyph-name="zhuanyechaxun1" unicode="&#59027;" d="M512 896c282.76736 0 512-229.23264 512-512S794.76736-128 512-128 0 101.23264 0 384 229.23264 896 512 896zM730.80832 600.30976h-139.264c-17.28512 0-34.5088-3.93216-49.80736-11.38688a110.51008 110.51008 0 0 1-29.75744-21.21728 110.51008 110.51008 0 0 1-29.75744 21.21728 114.44224 114.44224 0 0 1-49.80736 11.38688h-139.264c-26.37824 0-48.29184-19.61984-49.88928-44.6464l-0.02048-0.28672v-355.00032l0.02048-0.59392c1.59744-25.02656 23.51104-44.6464 49.88928-44.6464h142.21312A116.69504 116.69504 0 0 1 512 126.75072a116.736 116.736 0 0 1 76.63616 28.38528h142.21312c27.56608 0 49.99168 21.34016 49.99168 47.55456V552.7552c-0.04096 26.2144-22.46656 47.55456-50.03264 47.55456z m-177.72544-397.94688c-10.52672-11.6736-25.51808-18.37056-41.12384-18.37056s-30.59712 6.69696-41.10336 18.37056a30.67904 30.67904 0 0 1-22.87616 10.01472H303.3088V543.04768h129.06496c27.27936 0 49.47968-21.11488 49.47968-47.06304v-160.84992c0-15.79008 13.49632-28.63104 30.1056-28.63104 16.5888 0 30.1056 12.84096 30.1056 28.63104v160.84992c0 25.94816 22.20032 47.06304 49.47968 47.06304h129.06496V212.3776h-144.67072c-8.8064 0-17.14176-3.64544-22.85568-10.01472z"  horiz-adv-x="1024" />

    
    <glyph glyph-name="daoshijiehuo1" unicode="&#59028;" d="M512 896c282.76736 0 512-229.23264 512-512S794.76736-128 512-128 0 101.23264 0 384 229.23264 896 512 896zM518.41024 233.61536c-115.75296 0-211.27168 92.93824-211.27168 209.59232 0 116.6336 95.51872 209.59232 211.27168 209.59232 115.73248 0 211.27168-92.95872 211.27168-209.59232-0.02048-114.81088-93.71648-209.59232-211.27168-209.59232z m-152.49408 9.1136s115.73248-41.92256 115.73248-56.50432v-29.16352c-1.8432-9.1136-115.73248-54.6816-115.73248-54.6816a18.3296 18.3296 0 0 0-18.37056 18.2272v103.87456c0 10.9568 9.19552 18.24768 18.37056 18.24768z m152.49408-45.568c11.01824 0 18.37056-9.1136 18.37056-18.2272s-7.35232-18.2272-18.37056-18.2272a18.3296 18.3296 0 0 0-18.37056 18.2272c-0.02048 9.13408 9.17504 18.2272 18.37056 18.2272z m152.4736 47.39072c11.01824 0 18.37056-9.1136 18.37056-18.2272v-103.89504c1.8432-10.93632-7.35232-20.04992-18.37056-20.04992 0 0-115.73248 41.92256-115.73248 56.50432v29.16352c0 12.77952 115.73248 56.50432 115.73248 56.50432z"  horiz-adv-x="1024" />

    
    </font>
</defs>
</svg>
